<?xml version="1.0" encoding="utf-8"?>
<!-- Generator: Adobe Illustrator 21.0.0, SVG Export Plug-In . SVG Version: 6.00 Build 0)  -->
<svg version="1.1" id="Capa_1" xmlns="http://www.w3.org/2000/svg" xmlns:xlink="http://www.w3.org/1999/xlink" x="0px" y="0px"
	 viewBox="0 0 133 175" style="enable-background:new 0 0 133 175;" xml:space="preserve">
<style type="text/css">
	.st0{fill:#FFFFFF;}
</style>
<g>
	<path class="st0" d="M93.1,69.6v-29c0-0.1-0.1-0.2-0.2-0.2H37c-0.1,0-0.2,0.1-0.2,0.2v29c0,0,0,0,0,0.1c0.2,10.1,3.2,19.6,8.3,27.4
		c5,7.6,12.1,12.9,19.8,15.1H65c7.7-2.1,14.7-7.5,19.8-15.1C90,89.3,92.8,79.8,93.1,69.6C93.1,69.7,93.1,69.7,93.1,69.6L93.1,69.6z
		 M92,69.5L92,69.5c-0.4,20-11.6,37-27,41.6c-15.5-4.4-26.5-21.5-27-41.4v-0.1V41.6H92V69.5L92,69.5z"/>
	<path class="st0" d="M64.8,104.2L64.8,104.2c12.1-4.5,20.7-18.7,21-34.7c0-0.1,0-0.2,0-0.3v-21c0-0.1-0.1-0.2-0.2-0.2H44
		c-0.1,0-0.2,0.1-0.2,0.2v21c0,0.1,0,0.2,0,0.3C44.3,85.4,53,99.7,64.8,104.2L64.8,104.2z M65,103c-11.4-4.4-19.6-18.3-19.9-33.6
		c0-0.1,0-0.2,0-0.3c0,0,0-16.1,0-19.6c0.1,0.3,0.2,0.5,0.3,0.6c0.3,0.5,1.1,1.8,1.1,1.8s0.1,0.6-0.2,0.7c-0.2,0.1,0.3,0.4,0.5,0.6
		c0.2,0.2,0.5,0.9,0.8,1.1c0.3,0.1,0.4-0.3,0.2-0.7c-0.2-0.4-0.7-1.5-0.7-1.5S47,51.6,46.8,51c-0.2-0.5-0.5-1.3-0.5-1.3
		s1.4,0.3,1.5,1.1c0.1,0.3,0.5,2.1,0.9,3.3c0.2,0.6,0.6,1.2,1.1,1.7c0.4,0.5,1.4,1.5,2.5,1.8c1.2,0.3,2.4-0.4,2.9,0
		c0.5,0.4,1.6,1.5,2.3,1.7c0.7,0.2,2.6,0.6,3.1,1.5c0.4,0.8,1.4,0.8,1.8,0.9c0.5,0.1,2.1,0.7,2.1,2.2l-1.3,2.6c0,0-0.9,1.1-1.2,2
		c-0.2,0.9-0.6,1.5,0.3,2.9c0.9,1.5,1.6,3.2,1.7,4.5c0.1,1.3,1.3,1.5,2.1,2c0.8,0.5,0,1.2-0.5,2.3c-0.5,1.2-0.2,3.7-0.7,5.3
		c-0.5,1.6-1.1,2.2-1.1,3.5c0,1.3,0.1,2.6-0.4,3.8c-0.5,1.2-0.2,2.2-0.2,3.4c-0.1,1.2,0.2,2.6,1.1,3.7c0.8,1.1,2.6,1.5,2.4-0.1
		s0.1-3.7,1.1-4.7s0.9-1.1,0.9-1.1s-0.2-1.5,0.8-2.2c0.9-0.6,1.6-1.2,1.1-1.4c-0.5-0.2,0-0.8,0.5-0.8c0.5,0,0.8,0.2,2.1-1.3
		c1.3-1.5,1.7-1.8,2.9-2.5c1.3-0.7,1.8-2.2,2.5-2.9c0.8-0.8,2.2-1.5,3.2-1.7c0.8-0.2,1.4-1.1,1.4-2.1s-0.3-1.8,0.4-2.8
		c0.6-1.1,0.3-1.4,0.9-1.9C82.6,87.6,75.1,99,65,103L65,103z M84.8,69.1c0,0.1,0,0.2,0,0.3c0,0.6,0,1.3-0.1,1.9
		c-0.6-0.6-1.6-0.9-2.1-1.6c-0.6-0.7-1.5-1.2-1.8-1.4c-0.3-0.2-0.5-0.5-1.4-0.3c-0.8,0.2-1.6,0-1.8-0.8c-0.2-0.8-0.1-1.8-0.9-2.2
		c-0.8-0.5-1.5-1.1-2.1-1.5C74,63,73.4,62.1,73.2,62s-1.9,0.1-1.9,0.1s-0.9-0.8-2.4-0.5c0,0-0.8-1.4-1.8-0.6
		c-0.9,0.7-1.8,1.2-2.3,0.5c-0.5-0.7-1.5-0.4-2.2-0.3c-0.6,0.1-1.2-1.1-1.4-1.5c-0.2-0.5,0-1.2-0.2-1.2s-1.2,0.3-1.8-0.2
		s-0.3-0.9-0.1-1.4c0.2-0.4,0.5-2,0.4-2.3l-0.7-0.1c0,0-0.8-0.2-1.1,0.5c-0.2,0.6-1.3,1.3-2.2,1.1c-0.8-0.2-1.5-0.8-1.8-1.7
		c-0.3-0.8-0.2-1.5-0.1-1.9c0.2-0.5-0.5-1.4-0.8-1.6c-0.2-0.2-0.2,0.1-0.7-0.6c-0.2-0.4-0.6-0.7-0.9-1.1h33.7
		C84.8,50.9,84.8,69.1,84.8,69.1L84.8,69.1z"/>
	<path class="st0" d="M49.5,17.4c-1.2-0.5-2.3-0.3-2.7,0.2c-0.3,0.3-0.4,0.4-0.5,0.4c-0.2,0-1.8-0.1-2.5,0.8
		c-0.3,0.4-0.4,1.1-0.1,1.8c0.9,2.6,1.1,3.1,1.1,3.1v0.1c0,0,1.7,1.7,0.9,3.3c-0.8,1.7-0.6,2.1,0.3,2.6c0.7,0.4,1.1,0.8,1.1,2.5v0.1
		c0,1.2,0,2.2,0.5,2.7c0.3,0.3,0.6,0.4,1.2,0.4c0.4,0,0.7-0.1,0.9-0.4c0.7-0.9,0.5-3.2,0.3-4.2c-0.2-0.8-0.6-2.9,0-3.5
		c0.7-0.5,1.1-0.7,1.5-0.2c0,0,0.1,0.1,0.1,0c0.3,0,1.1-0.3,0.9-1.1c0-0.3-0.1-0.5-0.2-0.6l0,0c0.1,0,0.1,0,0.3,0.1
		c0.5,0.1,0.9,0,1.2-0.3c0.2-0.3,0.3-0.7,0.1-1.2c-0.3-0.7-1.5-2.7-2.3-3.5l-0.2-0.2c-0.5-0.4-0.5-0.4-0.4-0.9
		C51.1,18.7,50.5,18,49.5,17.4L49.5,17.4z M51.6,25.9c0,0.1,0,0.1,0.1,0.2c-0.8-0.3-1.7,0.2-2.2,0.6c-1.2,0.8-0.8,2.7-0.4,4.5
		c0.3,1.3,0.3,2.8-0.1,3.4c0,0.1-0.1,0.1-0.2,0.1c-0.2,0-0.4,0-0.5-0.1c-0.3-0.3-0.3-1.3-0.3-2.1v-0.1c0-1.9-0.4-2.7-1.6-3.4
		c-0.2-0.1-0.2-0.1-0.3-0.2c0-0.1,0.1-0.4,0.4-1.2c0.8-1.9-0.5-3.6-1.1-4.2c-0.1-0.4-0.4-1.2-1.1-2.9c-0.1-0.4-0.2-0.7,0-0.8
		c0.3-0.3,1.3-0.4,1.7-0.4c0.1,0,0.1,0,0.2,0c0.2,0,0.6-0.2,1.1-0.8c0.1-0.1,0.8-0.3,1.6,0c0.8,0.4,1.1,0.8,1.1,0.9
		c-0.1,0.8,0.1,1.2,0.7,1.7l0.2,0.2c0.7,0.6,1.8,2.4,2.1,3.2c0,0.1,0,0.1,0,0.1s-0.1,0-0.2,0c-0.4-0.1-0.9-0.2-1.3,0.2
		C51.4,25.2,51.6,25.6,51.6,25.9L51.6,25.9z"/>
	<path class="st0" d="M47.5,21.1c-0.5,0-0.8,0.4-0.8,0.8c0,0.5,0.4,0.8,0.8,0.8c0.5,0,0.8-0.4,0.8-0.8
		C48.3,21.4,47.9,21.1,47.5,21.1L47.5,21.1z"/>
	<path class="st0" d="M38.5,21.5c-0.1,0-3.8,1.1-3.8,3.4c0,2.4,2.3,2.5,2.4,2.5c0.1,0,0.1,0,0.1-0.1s0-0.1,0-0.2
		c-0.3-0.4-0.5-0.7-0.4-1.1c0.1-0.3,0.4-0.5,0.7-0.7c0.4-0.2,0.9-0.5,0.8-1.2c-0.2-1.2,0.3-2.5,0.3-2.6c0-0.1,0-0.1,0-0.1
		C38.7,21.5,38.5,21.5,38.5,21.5L38.5,21.5z M35.9,25.7c-0.1-0.2-0.2-0.5-0.2-0.8c0-0.8,0.9-1.6,1.8-2c-0.1,0.5-0.1,0.9,0,1.4
		c-0.1,0.1-0.3,0.2-0.3,0.2C36.7,24.8,36.1,25.1,35.9,25.7L35.9,25.7z"/>
	<path class="st0" d="M40.5,25.7C39,26.6,38,27.2,38,27.2c-0.1,0-0.1,0.1-0.1,0.2c0,0.1,0.1,0.1,0.1,0.1c0.5,0.1,4.7,1.1,5.5,0.9
		c0.4-0.1,1.3-0.4,1.7-1.3c0.3-0.7,0.1-1.7-0.6-2.8c-1.3-2.4-2-4.2-2-4.2c0-0.1-0.1-0.1-0.2-0.1c0,0-4,0.9-3.4,4.7
		c0,0.1,0.1,0.1,0.1,0.1h1.4c0.2,0.1,0.5,0.2,0.5,0.3C41.1,25.2,41.1,25.4,40.5,25.7L40.5,25.7z M42.1,25c-0.1-0.8-1.1-1.2-1.3-1.2
		c-0.1,0-0.1,0-0.2,0H40c0.1-1.6,1.3-2.3,2-2.6c0.3,0.7,0.9,2,1.7,3.6v0.1c0.4,0.5,0.7,1.4,0.5,1.9c-0.2,0.4-0.7,0.6-0.9,0.7
		c-0.2,0-1.4-0.1-3.1-0.4c0.2-0.1,0.4-0.2,0.6-0.3C41.3,26.5,42.2,26,42.1,25L42.1,25z"/>
	<path class="st0" d="M47.3,35.8c0-0.1-0.1-0.2-0.3-0.3L46,35l0,0c0,0-0.5-0.1-1.1,0.4l-4.2,3.1c-0.1,0.1-0.4,0.4-0.4,0.6
		c0,0.1,0.1,0.2,0.4,0.3c0.6,0.1,2.5,0.3,2.5,0.3s0.9,0,1.4-0.4c0.3-0.4,2.2-2.6,2.3-2.7C47.1,36.6,47.4,36.2,47.3,35.8L47.3,35.8z
		 M43.9,38.7c0,0-0.3,0.1-0.5,0.1l-1.2-0.1l3.4-2.4l0.1-0.1l0.1-0.1l0.3,0.2C45.4,37,44.2,38.4,43.9,38.7L43.9,38.7z"/>
	<path class="st0" d="M45.5,39.8c0.6,0.1,1.6,0.2,1.7,0.2c0.1,0,0.6,0.1,1.2-0.7l1.2-2.1c0-0.1,0.2-0.3,0.1-0.6
		c0-0.1-0.1-0.3-0.4-0.3c-0.6-0.1-0.8-0.2-0.8-0.2s-0.6-0.2-0.9,0.3c-0.2,0.4-2,2.5-2.1,2.6c0,0-0.3,0.4-0.2,0.7
		C45.1,39.7,45.3,39.8,45.5,39.8L45.5,39.8z M47.3,39.1c-0.1,0-0.4,0-0.8-0.1c0.5-0.6,1.3-1.6,1.6-2c0,0,0.1,0,0.3,0.1
		c-0.2,0.5-0.9,1.8-0.9,1.8C47.4,39,47.3,39,47.3,39.1L47.3,39.1z"/>
	<path class="st0" d="M49.8,40.1h1.4c0.3,0,0.8-0.2,0.8-1.1v-2.3v-0.1c0,0-0.3-0.4-0.8-0.4c-0.4,0-0.8,0-0.8,0s-0.4,0-0.6,0.5
		c-0.1,0.4-0.8,2-0.8,2.1c0,0-0.2,0.4,0,0.7C49,40,49.3,40.1,49.8,40.1L49.8,40.1z M51,39.1L51,39.1h-1.2l0,0
		c0.2-0.4,0.6-1.4,0.7-1.8c0.1,0,0.3,0,0.4,0L51,39.1L51,39.1z"/>
	<path class="st0" d="M55.9,40l1.2-0.1c0,0,0.2,0,0.3-0.2c0.1-0.2,0.1-0.4,0-0.7c-0.3-0.6-1.7-3.6-1.8-3.7l0,0c0,0-0.3-0.4-0.6-0.3
		l0,0l-0.7,0.4c-0.2,0.1-0.4,0.3-0.3,0.8c0.2,0.5,0.9,3.2,1.1,3.2l0,0C55,39.6,55.3,40,55.9,40L55.9,40z M55,36.1
		c0.3,0.7,0.9,2,1.4,2.8c-0.2,0-0.5,0-0.5,0l0,0C55.7,38.4,55.2,36.8,55,36.1L55,36.1L55,36.1z"/>
	<path class="st0" d="M52.6,40.2c0.3,0,1.7-0.1,1.7-0.1s0.3,0,0.4-0.2c0.1-0.1,0.1-0.3,0-0.6l-1.1-2.9l0,0c-0.1-0.2-0.3-0.5-0.7-0.3
		c-0.3,0.1-0.7,0.2-0.8,0.2l0,0c0,0-0.2,0.1-0.2,0.5c0,0.3,0.1,2.6,0.1,2.7C52.1,39.7,52.2,40.2,52.6,40.2L52.6,40.2z M53.1,39.1
		c0-0.8-0.1-1.7-0.1-2.1l0,0l0.7,2.1H53.1L53.1,39.1z"/>
	<path class="st0" d="M58.4,39.7c0.4-0.1,1.2-0.2,1.3-0.2s0.4,0,0.6-0.3c0.1-0.2,0.1-0.6-0.1-1.1c-0.5-1.1-2.6-4.3-2.7-4.5
		c0,0-0.1-0.2-0.3-0.3c-0.1,0-0.3,0-0.4,0.2L56,34.3c-0.1,0.1-0.4,0.5-0.2,0.9c0.3,0.6,1.9,3.9,1.9,3.9l0,0
		C57.7,39.4,57.9,39.7,58.4,39.7L58.4,39.7z M56.6,34.9c0.1-0.1,0.2-0.2,0.3-0.3c0.5,0.8,1.9,3.1,2.4,3.9c-0.2,0-0.5,0.1-0.8,0.1
		C58.2,38.3,57,35.6,56.6,34.9L56.6,34.9z"/>
	<path class="st0" d="M33,74.5c-2.1-0.9-4.1-0.2-4.1,1.7c0,4.3,8.9,3.7,7.5-3.8c-0.8-4.3-3.5-9.9-4.1-18c-0.7-8.1,3.6-10.7,3.6-10.7
		v-2.1c-6.8,3.4-5.5,18.1-3.5,24.9C34.4,73.4,33,74.5,33,74.5L33,74.5z"/>
	<path class="st0" d="M101.2,76.1c0-1.9-2-2.7-4.1-1.7c0,0-1.6-1.1,0.5-7.9S101,45,94.2,41.6v2.1c0,0,4.3,2.6,3.7,10.7
		c-0.6,8.1-3.3,13.7-4.1,18C92.3,79.8,101.2,80.5,101.2,76.1L101.2,76.1z"/>
	<path class="st0" d="M30.2,80.6L26,84c-4.8-3.8-7,0.7-7,0.7c1.8-0.3,3.3,0.2,3.3,0.2c-3.8,1.1-2.8,3.5-2.8,3.5s3.9-2.3,5.5,0.3
		c2.1,3.4-0.5,6.1-0.5,6.1c6.4,0,4.3-8.5,4.3-8.5l5.7-5.6h-4.1C30.2,80.8,30.2,80.6,30.2,80.6z"/>
	<path class="st0" d="M110.1,84.7c0,0-2.1-4.4-7-0.7l-4.2-3.5h-4.1l5.7,5.6c0,0-2.1,8.5,4.3,8.5c0,0-2.6-2.6-0.5-6.1
		c1.6-2.6,5.5-0.3,5.5-0.3s0.9-2.4-2.8-3.5C106.8,84.9,108.3,84.3,110.1,84.7L110.1,84.7z"/>
	<path class="st0" d="M35.7,48.5l0.1-3.4c-0.1,0.6-0.6,1.2-1.3,1.5c-0.6,0.3-0.3,0.8-0.3,0.8C35.5,47.3,35.7,48.5,35.7,48.5
		L35.7,48.5z"/>
	<path class="st0" d="M35,57.3c0.2,2.3,0.8,1.5,0.8,1.5s-0.2-3.8-0.2-4.5c-0.1-0.7-2.3-0.3-2.4,0.4c0,0.7,0.4,4.1,0.4,4.1l0.6-0.1
		l-0.1-2.8C34.2,55.7,34.8,55,35,57.3L35,57.3z"/>
	<path class="st0" d="M35.5,65.3c0.5,0.7,0.6-3.1,0.4-3.8c0,0-1.7-0.5-1.6,0.4C34.5,62.8,34.8,64.3,35.5,65.3L35.5,65.3z"/>
	<path class="st0" d="M33.3,50.6c0,0.7,2.3,0.4,2.3,0.4v-1.3C35.6,49.7,33.3,49.4,33.3,50.6L33.3,50.6z"/>
	<path class="st0" d="M35.6,52.9v-1.3c0,0-2.3-0.3-2.3,0.7C33.3,53.2,35.6,52.9,35.6,52.9L35.6,52.9z"/>
	<path class="st0" d="M41.9,94.8c0-0.4-0.3-0.7-0.7-0.7c-0.4,0-0.7,0.3-0.7,0.7c0,0.4,0.3,0.7,0.7,0.7
		C41.6,95.5,41.9,95.2,41.9,94.8L41.9,94.8z"/>
	<path class="st0" d="M96,87.1c-0.4,0-0.7,0.3-0.7,0.7s0.3,0.7,0.7,0.7c0.4,0,0.7-0.3,0.7-0.7C96.7,87.4,96.4,87.1,96,87.1L96,87.1z
		"/>
	<path class="st0" d="M94.3,88.1c0-0.4-0.3-0.7-0.7-0.7c-0.4,0-0.7,0.3-0.7,0.7s0.3,0.7,0.7,0.7C94,88.9,94.3,88.6,94.3,88.1
		L94.3,88.1z"/>
	<path class="st0" d="M92.2,88.4c0-0.4-0.3-0.7-0.7-0.7s-0.7,0.3-0.7,0.7c0,0.4,0.3,0.7,0.7,0.7C91.9,89.2,92.2,88.9,92.2,88.4
		L92.2,88.4z"/>
	<path class="st0" d="M34.7,101l0.3-4.2c0,0-0.3-0.8-1.6-0.2l-0.2,3.3c0,0-0.7,1.3-2.3-0.1l0.2-3.3c0,0-0.5-0.7-1.5-0.2l-0.2,4.3
		C29.3,100.3,31.4,103.2,34.7,101L34.7,101z"/>
	<path class="st0" d="M32.1,99.2c0.2,0,0.4-0.2,0.4-0.4l0.1-1.4c0-0.2-0.2-0.4-0.4-0.4s-0.4,0.2-0.4,0.4l-0.1,1.4
		C31.7,99,31.8,99.2,32.1,99.2L32.1,99.2z"/>
	<path class="st0" d="M40.5,101.8l0.3-4.1c0,0-0.3-0.8-1.6-0.2l-0.1,3.2c0,0-0.7,1.2-2.2-0.1l0.2-3.2c0,0-0.5-0.6-1.5-0.2l-0.2,4.2
		C35.5,101.3,37.5,103.9,40.5,101.8L40.5,101.8z"/>
	<path class="st0" d="M38.1,100.1c0.2,0,0.4-0.2,0.4-0.4l0.1-1.4c0-0.2-0.2-0.4-0.4-0.4s-0.4,0.2-0.4,0.4l-0.1,1.4
		C37.8,99.9,37.9,100.1,38.1,100.1L38.1,100.1z"/>
	<path class="st0" d="M45.9,102.2l0.1-2.1c0,0-0.2-1.1-1.3-0.3l-0.1,0.9c0,0-0.5,0.7-0.4-0.5c0.1-1.4,0.1-1.4,0.1-1.4
		S44,98.4,43.7,99v1.7c0,0-0.3,0.3-0.8,0l0.2-2.4c0,0-0.3-0.9-1.4-0.2l-0.2,3.7C41.5,101.7,43,104.3,45.9,102.2L45.9,102.2z"/>
	<path class="st0" d="M32.1,93.3c0-0.4-0.3-0.7-0.7-0.7s-0.7,0.3-0.7,0.7c0,0.4,0.3,0.7,0.7,0.7C31.8,93.9,32.1,93.6,32.1,93.3
		L32.1,93.3z"/>
	<path class="st0" d="M35.6,93.8c0-0.4-0.3-0.7-0.7-0.7c-0.4,0-0.7,0.3-0.7,0.7c0,0.4,0.3,0.7,0.7,0.7
		C35.3,94.4,35.6,94.1,35.6,93.8L35.6,93.8z"/>
	<path class="st0" d="M38.4,94.2c0-0.4-0.3-0.7-0.7-0.7c-0.4,0-0.7,0.3-0.7,0.7c0,0.4,0.3,0.7,0.7,0.7C38.1,95,38.4,94.7,38.4,94.2
		L38.4,94.2z"/>
	<path class="st0" d="M35,82v2.5l1.6,1.4C36.7,85.8,37.5,82.8,35,82L35,82z"/>
	<path class="st0" d="M37.3,88.4c-0.2,0.2-0.5,0.7-0.7-0.1s-0.9-0.7-1.3-0.7c-0.4,0-0.9,1.6-1.3,0.4c-0.3-1.1-0.5-1.7-1.8-1.4v2.6
		l6.5,1.5c0,0,0-1.8-0.3-2C38.2,88.3,37.5,88.2,37.3,88.4L37.3,88.4z"/>
	<path class="st0" d="M39.1,91.8c0,0-4.5-1.4-6.6-1.5v1.1l6.8,1.6C39.2,93,39.5,92.8,39.1,91.8L39.1,91.8z"/>
	<path class="st0" d="M100.1,100.3L99.9,96c-0.9-0.5-1.5,0.2-1.5,0.2l0.2,3.3c-1.6,1.4-2.3,0.1-2.3,0.1l-0.2-3.3
		c-1.3-0.6-1.6,0.2-1.6,0.2l0.3,4.2C98.1,103.2,100.1,100.3,100.1,100.3L100.1,100.3z"/>
	<path class="st0" d="M96.9,98.8c0,0.2,0.2,0.4,0.4,0.4c0.2,0,0.4-0.2,0.4-0.4l-0.1-1.4c0-0.2-0.2-0.4-0.4-0.4s-0.4,0.2-0.4,0.4
		L96.9,98.8L96.9,98.8z"/>
	<path class="st0" d="M93.9,101.3l-0.2-4.2c-0.9-0.4-1.5,0.2-1.5,0.2l0.2,3.2c-1.5,1.3-2.2,0.1-2.2,0.1L90,97.5
		c-1.2-0.6-1.6,0.2-1.6,0.2l0.3,4.1C92,103.9,93.9,101.3,93.9,101.3L93.9,101.3z"/>
	<path class="st0" d="M91.1,98c-0.2,0-0.4,0.2-0.4,0.4l0.1,1.4c0,0.2,0.2,0.4,0.4,0.4c0.2,0,0.4-0.2,0.4-0.4l-0.1-1.4
		C91.6,98.1,91.4,98,91.1,98L91.1,98z"/>
	<path class="st0" d="M84.8,100.8l-0.1-0.9c-1.1-0.7-1.3,0.3-1.3,0.3l0.1,2.1c2.9,2.1,4.4-0.5,4.4-0.5L87.8,98
		c-0.9-0.7-1.3,0.2-1.3,0.2l0.2,2.4c-0.5,0.3-0.8,0-0.8,0V99c-0.3-0.5-0.6-0.1-0.6-0.1s0,0,0.1,1.4
		C85.4,101.5,84.8,100.8,84.8,100.8L84.8,100.8z"/>
	<path class="st0" d="M13.1,18.4c0.5-0.2,0.9-0.6,0.6-1.3l-2.1-5.4L11.1,12l2.1,5.3c0.2,0.4,0.1,0.6-0.2,0.7c-0.3,0.1-0.5,0-0.6-0.4
		l-2.1-5.3l-0.5,0.2l2.1,5.4C12,18.6,12.7,18.6,13.1,18.4L13.1,18.4z"/>
	<polygon class="st0" points="15.6,17.4 13.9,11.8 13.9,11.8 16.3,17.2 17.2,16.9 15.3,10.5 14.8,10.7 16.3,16.2 16.3,16.2 14,10.9 
		13.2,11.1 15.1,17.5 	"/>
	<polygon class="st0" points="18.9,16.5 17.2,10.1 16.6,10.2 18.2,16.7 	"/>
	<polygon class="st0" points="21.2,16 20.5,9.2 19.8,9.4 20.6,15.4 20.6,15.5 18.7,9.7 18,9.9 20.3,16.2 	"/>
	<polygon class="st0" points="24.2,15.3 24.1,14.8 23.2,15 22.7,12.4 23.6,12.2 23.5,11.7 22.6,11.9 22,9.4 23.1,9.3 23,8.8 
		21.4,9.1 22.7,15.6 	"/>
	<path class="st0" d="M25.8,15.1L25.3,12l0.4-0.1c0.3,0,0.5,0,0.5,0.3l0.5,2.7l0.6-0.1L26.9,12c-0.1-0.4-0.3-0.5-0.8-0.5l0,0
		c0.4-0.1,0.6-0.3,0.5-0.8l-0.3-1.7c-0.1-0.6-0.5-0.7-1.1-0.6L24,8.5l1.2,6.6H25.8L25.8,15.1z M24.8,9l0.3-0.1
		c0.3-0.1,0.5,0,0.6,0.3l0.2,1.5c0.1,0.4-0.1,0.5-0.3,0.5l-0.4,0.1L24.8,9L24.8,9z"/>
	<path class="st0" d="M27.6,9.8c0,0.3,0.2,0.5,0.4,0.8l1.2,1.4c0.2,0.2,0.2,0.4,0.3,0.6l0.1,0.9c0,0.3,0,0.5-0.3,0.5
		s-0.4-0.1-0.4-0.4l-0.2-0.9L28,12.8l0.1,0.9c0.1,0.6,0.4,0.9,1.2,0.8c0.6-0.1,0.9-0.5,0.8-1.2l-0.2-1.1c0-0.3-0.2-0.5-0.3-0.7
		l-1.3-1.5c-0.1-0.2-0.2-0.3-0.2-0.5L28,8.9c0-0.2,0-0.4,0.3-0.5c0.3,0,0.4,0.1,0.4,0.4l0.1,0.8l0.6-0.1l-0.1-0.8
		C29.3,8.1,29,7.9,28.3,8c-0.7-0.1-0.9,0.3-0.8,0.9L27.6,9.8L27.6,9.8z"/>
	<polygon class="st0" points="31.8,14.2 31,7.4 30.3,7.5 31.3,14.2 	"/>
	<path class="st0" d="M34.1,13.9c0.8-0.1,0.9-0.5,0.9-1.2l-0.5-4.5c-0.1-0.6-0.3-1.1-1.2-0.9l-1.1,0.1l0.8,6.6L34.1,13.9L34.1,13.9z
		 M33.2,7.8c0.4,0,0.5,0.1,0.6,0.4l0.5,4.6c0,0.4-0.1,0.5-0.4,0.6h-0.3l-0.7-5.7H33.2L33.2,7.8z"/>
	<path class="st0" d="M36.5,11.7l1.1-0.1l0.4,1.8l0.6-0.1L37,6.7l-0.8,0.1l-0.2,6.7l0.6-0.1L36.5,11.7L36.5,11.7z M36.5,7.2
		L36.5,7.2l0.9,3.8l-0.9,0.1V7.2L36.5,7.2z"/>
	<path class="st0" d="M40.5,13.1c0.8-0.1,0.9-0.5,0.9-1.2l-0.4-4.5c-0.1-0.6-0.3-1.1-1.2-0.9l-1.1,0.1l0.6,6.6L40.5,13.1L40.5,13.1z
		 M39.9,7c0.4,0,0.5,0.1,0.6,0.4l0.4,4.6c0,0.4-0.1,0.5-0.5,0.5h-0.3l-0.5-5.7L39.9,7L39.9,7z"/>
	<polygon class="st0" points="44.8,12.8 44.3,6.8 44.3,6.8 45.6,12.7 46.4,12.6 46,6 45.4,6 45.8,11.8 45.8,11.8 44.6,6.1 43.8,6.1 
		44.2,12.8 	"/>
	<path class="st0" d="M48,10.7l1.1-0.1l0.3,1.8H50l-1.4-6.6h-0.8l-0.5,6.7h0.6L48,10.7L48,10.7z M48.3,6.3L48.3,6.3l0.7,3.8
		l-0.9,0.1L48.3,6.3L48.3,6.3z"/>
	<path class="st0" d="M51.8,12.4c0.6,0,0.9-0.4,0.9-0.9v-0.9h-0.6v0.9c0,0.3-0.1,0.4-0.3,0.4s-0.3-0.1-0.3-0.4l-0.2-4.9
		c0-0.3,0.1-0.4,0.3-0.4s0.2,0.1,0.2,0.4v0.8h0.6V6.5c0-0.5-0.3-0.9-1.1-0.8c-0.6,0-0.9,0.4-0.9,0.9l0.2,4.9
		C50.7,12.1,51.2,12.4,51.8,12.4L51.8,12.4z"/>
	<polygon class="st0" points="54.2,12.2 54,5.6 53.4,5.6 53.6,12.3 	"/>
	<path class="st0" d="M56.5,12.2c0.8,0,1.1-0.5,1.1-1.2l-0.1-4.5c0-0.6-0.3-1.2-1.2-1.1c-0.8,0-1.1,0.5-1.1,1.2l0.1,4.5
		C55.4,11.8,55.7,12.2,56.5,12.2L56.5,12.2z M56.3,5.9c0.4,0,0.4,0.2,0.5,0.6L57,11c0,0.4-0.1,0.6-0.4,0.6c-0.4,0-0.4-0.2-0.5-0.6
		l-0.1-4.5C55.8,6.2,55.9,5.9,56.3,5.9L56.3,5.9z"/>
	<polygon class="st0" points="59.3,12.1 59.2,6.1 59.2,6.1 60,12.1 61,12.1 60.7,5.3 60.2,5.3 60.3,11.1 60.3,11.1 59.5,5.3 
		58.5,5.3 58.7,12.1 	"/>
	<path class="st0" d="M62.5,10.2h1.1l0.2,1.9h0.6l-1.1-6.7h-0.8l-0.8,6.7h0.6L62.5,10.2L62.5,10.2z M63.1,5.8L63.1,5.8l0.5,3.9h-0.9
		L63.1,5.8L63.1,5.8z"/>
	<polygon class="st0" points="66.9,11.5 66,11.4 66,5.3 65.4,5.3 65.4,12 66.9,12 	"/>
	<path class="st0" d="M69.8,10.2h1.1l0.2,1.9h0.6l-0.8-6.7H70l-1.1,6.7h0.6L69.8,10.2L69.8,10.2z M70.4,5.9L70.4,5.9l0.4,3.9h-0.9
		L70.4,5.9L70.4,5.9z"/>
	<path class="st0" d="M73.6,12.2c0.5,0,1.1-0.2,1.2-0.9l0.2-5.8h-0.6L74.1,11c0,0.5-0.2,0.6-0.5,0.6s-0.4-0.2-0.4-0.6l0.2-5.6h-0.6
		l-0.2,5.8C72.5,12,73.1,12.2,73.6,12.2L73.6,12.2z"/>
	<polygon class="st0" points="76.2,12.3 76.8,12.3 77.2,6.1 77.8,6.1 77.8,5.7 75.8,5.6 75.8,6.1 76.5,6.1 	"/>
	<path class="st0" d="M79.5,12.5c0.8,0,1.1-0.4,1.2-1.1l0.2-4.5c0-0.6-0.2-1.2-1.1-1.2c-0.8,0-1.1,0.4-1.2,1.1l-0.2,4.5
		C78.4,12,78.6,12.4,79.5,12.5L79.5,12.5z M79,11.3l0.2-4.5c0-0.4,0.1-0.6,0.5-0.6c0.4,0,0.4,0.3,0.4,0.6L80,11.3
		c0,0.4-0.1,0.6-0.5,0.6C79.2,12,79,11.7,79,11.3L79,11.3z"/>
	<polygon class="st0" points="82.6,6.6 82.6,6.6 83,12.6 83.9,12.7 84.3,6 83.8,6 83.5,11.7 83.4,11.7 83,5.9 82.1,5.9 81.7,12.5 
		82.2,12.6 	"/>
	<path class="st0" d="M86.1,12.9c0.8,0.1,1.2-0.4,1.2-1.1l0.3-4.5c0.1-0.6-0.2-1.2-0.9-1.3c-0.8-0.1-1.2,0.4-1.2,1.1l-0.3,4.5
		C85,12.4,85.3,12.8,86.1,12.9L86.1,12.9z M85.7,11.8L86,7.2c0-0.4,0.1-0.6,0.5-0.6c0.4,0,0.4,0.3,0.4,0.6l-0.3,4.5
		c0,0.4-0.1,0.6-0.5,0.6S85.7,12.1,85.7,11.8L85.7,11.8z"/>
	<polygon class="st0" points="89.4,6.9 89.4,6.9 89.5,13.1 90.3,13.2 91.6,7.1 91.6,7.1 90.9,13.3 91.6,13.3 92.2,6.7 91.3,6.6 
		90,12.5 90,12.5 89.9,6.5 88.9,6.4 88.2,13 88.8,13.1 	"/>
	<path class="st0" d="M93.4,11.7l1.1,0.1v1.9l0.6,0.1L94.8,7L94,6.9l-1.8,6.5l0.6,0.1L93.4,11.7L93.4,11.7z M94.4,7.4L94.4,7.4v3.9
		l-0.9-0.1L94.4,7.4L94.4,7.4z"/>
	<polygon class="st0" points="103.7,8.7 103.7,8.7 103.3,14.9 104.1,15.1 105.8,9.1 105.9,9.1 104.7,15.2 105.2,15.3 106.4,8.7 
		105.6,8.5 103.8,14.3 103.8,14.3 104.2,8.3 103.2,8.2 102.1,14.7 102.6,14.8 	"/>
	<polygon class="st0" points="108,15.9 108.1,15.3 107,15.1 107.6,12.5 108.5,12.7 108.6,12.2 107.7,12 108.2,9.5 109.2,9.8 
		109.3,9.2 107.7,8.9 106.4,15.5 	"/>
	<polygon class="st0" points="108.5,16 109.1,16.1 110.3,13.4 110.4,13.5 110.3,16.4 110.9,16.5 110.8,13 112.4,10 111.8,9.9 
		110.6,12.4 110.6,12.4 110.7,9.5 110.1,9.4 110.2,12.9 	"/>
	<polygon class="st0" points="112.2,16.9 114,10.4 113.3,10.2 111.7,16.7 	"/>
	<path class="st0" d="M114.2,17.5c0.6,0.2,1.1-0.1,1.2-0.6l0.3-0.9l-0.6-0.2l-0.3,0.9c-0.1,0.3-0.2,0.4-0.4,0.3
		c-0.2-0.1-0.3-0.2-0.2-0.5l1.5-4.7c0.1-0.3,0.2-0.4,0.4-0.3c0.2,0.1,0.3,0.2,0.2,0.5l-0.2,0.8l0.6,0.2l0.2-0.8
		c0.2-0.5,0-0.9-0.6-1.2c-0.6-0.2-1.1,0.1-1.2,0.6l-1.5,4.7C113.3,16.9,113.6,17.3,114.2,17.5L114.2,17.5z"/>
	<path class="st0" d="M116.8,18.4c0.7,0.3,1.2,0,1.5-0.6l1.7-4.2c0.2-0.6,0.2-1.2-0.5-1.5c-0.7-0.3-1.2,0-1.5,0.6l-1.7,4.2
		C116.1,17.5,116.1,18.2,116.8,18.4L116.8,18.4z M116.8,17.2l1.7-4.2c0.1-0.3,0.3-0.5,0.6-0.4c0.3,0.1,0.3,0.4,0.2,0.7l-1.7,4.2
		c-0.1,0.3-0.3,0.5-0.6,0.4C116.7,17.8,116.7,17.5,116.8,17.2L116.8,17.2z"/>
	<path class="st0" d="M6.7,16.7c1.2,1.6,1.5,2.1,1.5,3.4v0.4c0,1.1,0,2.2,0.7,2.9c0.6,0.6,1.7,0.9,3.3,0.9c1.2,0,2.8-0.3,4.7-0.6
		c2.9-0.5,6.5-1.3,9.8-0.9c-0.7,0.7-3.3,2.7-8.3,2.2c-5-0.5-10.4-0.7-12.2,1.9c-1.1,1.5-0.8,3.6,0.5,6.3c0,0.1,0.1,0.1,0.2,0.1
		c0,0,3.9-1.4,3.1-5.6c1.5,0.1,2.9,0.6,4.5,1.2c0.3,0.1,0.6,0.2,0.9,0.3c-3.2,0.8-5.7,2.2-5.7,3.6c0,0.8,0.9,1.2,3.3,2.2
		s4.6,1.9,6.6,2.9c5.8,2.8,10,5.4,10.6,4.7c0.8-0.8-13-6.3-9.8-11c1.8-2.6,4.8,0.8,2.4,1.5c-2.5,0.5,3.6,6.7,10.7,8.8
		c0,0,1.3-1.4,2.2-1.8c0,0,1.1-0.8-0.5-1.3c-1.6-0.4-11.4-3.5-7.4-7.2c1.2-1.2,1.3-1.9,0.8-2.4c1.4-0.5,2.5-1.3,3.4-2.1
		c0.8-0.8,1.3-1.8,1.3-2.6c0-2.5-3.2-6.1-4.4-7.3c9.4-1.5,21.7-2.5,36-2.5c14.8,0,27.5,1.2,36.9,2.6c-1.2,1.2-4.4,4.7-4.4,7.4
		c0,0.9,0.4,1.8,1.3,2.6c0.6,0.6,1.4,1.1,2.2,1.6c-1.1,0.6-1.6,1.3-1.6,1.8c0,2.2,2,2.9,2,2.9c0.2,2.5-5.8,5.3-7.5,5.9
		c0.4,0.1,1.2,0.5,2.1,1.1c5.8-1.7,7.4-4.6,8.5-6.2c1.3-1.7-2-0.8-2-2.5c0-1.7,4.9-2.9,4,1.7c-0.9,4.1-6.8,6.7-9.5,7.7
		c0.3,0.3,0.7,0.6,1.1,0.9c0.1,0.2,0.5,0.7,0.7,0.6c0.3-0.1,0.1-0.9,0.5-0.8c0.5,0.1,0.8,0.3,1.1-0.2s0.2-0.9,0.6-0.7
		c0.4,0.3,0.5,0.5,0.8,0.4c0.4-0.1-0.3-1.3,0.5-0.9c0.9,0.3,1.1-0.2,0.8-0.7c-0.2-0.4,0.4-0.2,0.9,0.2c0.5,0.4,0.6-0.4,0.3-0.8
		c-0.3-0.4,0.1-0.8,0.6-0.3c0.5,0.5,1.5,0.3,0.8-0.4c-0.7-0.7,0.1-1.4,0.8-0.8c0.7,0.6,0.6,0.2,0.2-0.5c-0.4-0.7-0.1-0.9,0.8-0.3
		c0.9,0.6,1.6,0.4,0.5-0.4c-1.1-0.8-0.6-1.4,0.4-0.7c1.1,0.6,2.4,0.8,1.2-0.1c-1.2-1.1-1.6-1.8-0.1-1.1c1.4,0.7,2.5,0.6,0.4-0.7
		c-2.1-1.4,1.2-0.1,1.9,0.5c0.7,0.6,0.9-0.4-0.5-1.2c-1.5-0.8-0.6-1.1,1.4-0.1c1.9,0.9,1.9,0.1,0.3-0.5c-1.6-0.6-2.2-1.8-0.3-0.7
		c2,0.9,4,1.2,2,0.1c-0.9-0.4-1.6-0.8-1.8-1.2c0.6-0.2,1.4,0,2.7,0.9c2.6,1.9,0.1,3.8-2.1,4.7c-3.4,1.3-4.6,2.6-8.2,5.2
		c-2.1,1.5-4.8,2-6.7,2.1c0.2,0.3,0.4,0.7,0.5,1.2c3.1-0.1,6.6-1.2,8.7-2.4c2.8-1.8,7.8-4.5,11.3-5.4c2.7-0.6,5.4-2.1,1.2-5.2
		c-1.5-1.1-2.8-1.9-4.3-2.5c0.1,0,0.2-0.1,0.2-0.1c1.6-0.5,3.1-0.9,4.5-1.2c-0.8,4.2,2.9,5.6,3.1,5.6s0.2,0,0.2-0.1
		c1.4-2.7,1.5-4.9,0.5-6.3c-1.9-2.6-7.3-2.4-12.2-1.9c-5.7,0.6-8.1-1.9-8.5-2.4c0.6-0.1,1.4-0.1,2.1,0c1.6,0.1,3.4,0.4,5,0.7
		c4.1,0.7,8.3,1.4,10.3,0c0.6-0.4,0.9-1.2,1.1-2c0.2-1.8,1.1-3.4,1.9-4.7c0.8-1.4,1.6-2.6,1.3-3.8c-0.2-0.7-0.9-1.4-2.2-1.9
		c-5.5-2.4-13.9-4.5-23.7-6.1C88.7,3.3,76.6,2.5,64.5,2.5c-23.4,0-45,2.9-56.6,7.7c-0.1,0-2.3,0.8-2.8,2.4C4.8,13.3,5,14.2,5.5,15
		C5.9,15.8,6.4,16.3,6.7,16.7L6.7,16.7z M8.2,11.1C8.2,11.1,8.2,11,8.2,11.1c11.6-4.7,33-7.7,56.3-7.7c28.4,0,49.2,4.6,58.4,8.6
		c0.9,0.4,1.5,0.8,1.7,1.3c0.2,0.6-0.4,1.7-1.2,2.9c-0.8,1.5-1.8,3.1-2,5.2c-0.1,0.5-0.3,0.9-0.6,1.3c0,0,0,0-0.1,0
		c-0.1-0.3-0.2-0.6-0.5-0.9c-3.9-3.9-27.6-8.2-55.2-8.2c-14.2,0-28.2,1.2-39.3,3.2c-4.9,0.8-9.2,1.9-12,2.9
		c-2.4,0.9-3.9,1.8-4.3,2.6c-0.2-0.5-0.2-1.2-0.2-1.8v-0.4c0-1.7-0.4-2.2-1.6-4c-0.3-0.4-0.6-0.9-1.2-1.7c-0.4-0.6-0.5-1.2-0.3-1.6
		C6.4,12,7.7,11.2,8.2,11.1L8.2,11.1z M111.2,22.6c-1.8-0.3-3.6-0.6-5.2-0.7c-4-0.3-6.4,1.2-7.7,2.4c0.3-2,3.1-5,4.7-6.7
		c8.9,1.6,14.8,3.5,16.3,5c0.2,0.2,0.3,0.4,0.3,0.5c0,0.1,0,0.1-0.1,0.2C117.7,23.6,114.3,23.1,111.2,22.6L111.2,22.6z M102.7,23.2
		l0.4,0.2c0.5,0.6,3.3,3.4,9.4,2.7c2.5-0.3,8.2-0.8,10.6,0.8c-2.5-0.4-4.7,0.3-7,1.2c-0.4,0.1-0.8,0.3-1.4,0.4
		c-5.4-2.1-10-1.5-12.8-0.3c-1.2-0.5-2-1.1-2.6-1.7c-0.3-0.3-0.6-0.7-0.7-1.2c0.6-0.7,1.9-1.9,4.1-2.4
		C102.6,23.1,102.6,23.2,102.7,23.2L102.7,23.2z M121.9,27.9c0.7,0,1.4,0.1,2.2,0.3c0.4,0.9,0.2,2.3-0.5,4.1
		C122.6,31.6,121.2,30.4,121.9,27.9L121.9,27.9z M32.1,23.5c-4.5-2.7-10.8-1.6-15.5-0.7c-1.8,0.3-3.4,0.6-4.5,0.6
		c-0.8,0-1.5-0.1-2-0.3C10,23,10,22.9,10,22.9c0-0.1,0.1-0.2,0.3-0.5c1.6-1.5,7.8-3.5,17.3-5C29.2,18.8,31.5,21.5,32.1,23.5
		L32.1,23.5z M27.5,28.5c-2-0.6-5.4-0.5-7.4-0.3c-0.9,0.1-2,0.3-3.1,0.5c-0.8-0.2-1.7-0.5-2.5-0.8c-2.3-0.7-4.5-1.5-7-1.2
		c2.4-1.7,8.1-1.1,10.6-0.8c6.1,0.6,8.8-2.1,9.4-2.7l0.4-0.2l0,0c1.6,0.3,3.1,0.8,4.3,1.8C32,26.2,30.2,27.6,27.5,28.5L27.5,28.5z
		 M7.1,32.1C6.4,30.4,6.1,29,6.6,28c0.7-0.2,1.5-0.3,2.2-0.3C9.3,30.2,8,31.5,7.1,32.1L7.1,32.1z"/>
	<path class="st0" d="M68.4,36.4L68.4,36.4L68.4,36.4c-0.1,0.1,0.2,3.4,3.8,3.4c3.2,0,6.1-2.5,6.7-3.3c0.4,0.7,2.1,3.3,3.7,3.2
		c0.6-0.1,1.2-0.6,1.6-1.7c0.4,0.5,1.8,1.7,3.4,1.6c1.4-0.1,2.5-1.1,3.6-2.7c0-0.1,0-0.1,0-0.2c0,0-0.1-0.1-0.2-0.1
		c0,0-3.1,0.9-4.9-0.4c-1.1-0.7-1.6-2-1.6-3.8c0-2.7,0.2-4.3,0.5-5.3c0.8,0.4,2,0.8,3.2,0.8c3.4,0.1,4-2,4.1-2.1v-0.1
		c0,0-0.1-0.1-0.1,0c-1.2,0.2-2,0-2.4-0.1c1.6-0.5,2.7-0.5,3.3,0c0.6,0.5,0.4,1.5,0.4,1.5c0,0.1,0,0.1,0.1,0.2c0.1,0,0.1,0,0.2,0
		c1.2-1.4,1.7-2.4,1.4-3.4c-0.5-1.6-3.2-2.2-5.6-2.7c-3.5-0.7-4.7-4.5-4.7-4.5s0-0.1-0.1-0.1h-0.1c-0.8,0.5-1.5,1.1-2,1.6l-2.3-2.6
		l-0.1-0.1c0,0-0.1,0-0.1,0.1c0,0.1-0.9,1.3-0.4,3.2c-0.4-0.5-1.1-1.3-1.2-2.2c0-0.1,0-0.1-0.1-0.1s-0.1,0-0.2,0
		c0,0-2.4,2.2-0.1,5.6c-0.5,0.2-2.4,0.7-6-0.3h-0.1l-0.1,0.1c0,0-0.3,1.3,0.5,2.3c0.7,0.8,2,1.4,3.7,1.5c-0.6,0.4-2.2,1.3-5.5,0.3
		c-0.1,0-0.1,0-0.1,0s-0.1,0.1,0,0.1c0,0,0.9,3.9,6,3.3c-0.9,0.8-3.8,3.1-7.5,1.9h-0.1l-0.1,0.1c0,0.1,0.1,2.3,1.7,3.2
		c1.5,0.7,3.6,0.3,6.3-1.3C76.2,34.2,74.6,37,68.4,36.4L68.4,36.4z M76.9,25.7c0.2-0.2,0.2-0.6,0.1-0.8c-0.1-0.3-0.4-0.4-0.7-0.4
		c-1.7,0-2.8-0.4-3.4-1.1c-0.1-0.2-0.2-0.4-0.3-0.6c4,0.9,5.7,0,5.9-0.1c0.2-0.1,0.3-0.3,0.4-0.5c0-0.2,0-0.4-0.1-0.6
		c-0.9-1.3-1.1-2.3-0.9-3.1c0.5,0.8,1.3,1.5,1.3,1.5c0.3,0.2,0.7,0.2,1.1,0c0.3-0.2,0.4-0.6,0.2-0.9c-0.3-0.6-0.4-1.2-0.3-1.7
		l1.7,1.9c-0.1,0.2-0.1,0.3-0.2,0.5c-0.2,1.1,0.1,2,0.3,2.3c-2.7,1.8-2.8,3.4-2.7,4.1c-0.3,0.5-1.5,1.9-3.4,2.3
		c-2,0.2-3.2-0.4-3.9-1.2C75.5,27.4,76.8,25.9,76.9,25.7L76.9,25.7z M83.9,17.8c0.3,0.5,0.6,1.2,1.2,1.8l-1.4,0.1l-0.8-0.9
		C83.2,18.5,83.5,18.2,83.9,17.8L83.9,17.8z M93.7,25.2c-0.1-0.1-0.2-0.2-0.3-0.3c-0.9-0.8-2.5-0.8-4.7,0c-0.3,0.1-0.5,0.4-0.5,0.7
		c0,0.3,0.2,0.6,0.4,0.7c0.1,0,0.5,0.2,1.3,0.3c-0.5,0.2-1.2,0.3-1.9,0.3c-1.1,0-1.9-0.3-2.7-0.7c0.3-0.5,0.7-0.7,1.2-1.1
		c0.1-0.1,0.3-0.2,0.4-0.3c0.7-0.6,1.4-1.8,1.9-2.7c0.1,0,0.2,0,0.3,0.1c1.4,0.3,4.4,0.9,4.8,2.1C93.9,24.4,93.9,24.8,93.7,25.2
		L93.7,25.2z M88.9,38c-0.5,0.4-1.1,0.6-1.6,0.7c-1.5,0.1-2.7-1.4-2.7-1.4c-0.1-0.1-0.3-0.2-0.4-0.3c-0.2-0.4-0.5-1.2-0.6-2
		c0.1,0,0.2,0,0.3,0c0.3,0.8,0.8,1.6,1.6,2.1C86.4,37.8,87.9,38,88.9,38L88.9,38z M82.5,19.8l0.6,0.7c0.1,0.2,0.4,0.3,0.6,0.3
		c0,0,0.5,0,1.1-0.1c-0.1,0.3-0.3,0.6-0.5,0.7c-0.4,0.2-0.9,0.2-1.5,0c0-0.1,0-0.1-0.1-0.1C82.7,21.3,82.3,20.7,82.5,19.8L82.5,19.8
		z M86.3,24c-0.1,0.1-0.3,0.2-0.4,0.3c-0.5,0.4-1.1,0.7-1.5,1.4c-0.1-0.1-0.3-0.2-0.4-0.3c0.4-0.6,1.1-1.2,1.9-1.7
		c1.1-0.5,1.2-1.7,1.2-2.4c0.2,0.1,0.4,0.2,0.7,0.3C87.5,22.6,86.8,23.5,86.3,24L86.3,24z M79.9,36.1c-0.2-0.1-0.6-0.5-0.5-2.4
		c0.6-0.4,1.2-0.9,1.6-1.4c-0.1,0.9,0.1,1.7,0.6,2.1c0.1,0.1,0.2,0.2,0.3,0.3C81.3,35.4,80.3,36.3,79.9,36.1L79.9,36.1z M79.7,29.7
		C79.8,29.7,79.8,29.7,79.7,29.7c0.1,0,0.9-0.3,1.6-0.9c0,0.2,0,0.5,0.1,0.8c-1.4,2.3-2.6,3.3-3.3,3.3
		C78.1,32.7,78.8,31.2,79.7,29.7L79.7,29.7z M83.5,33.7c-0.5,0.1-0.8,0-1.2-0.2c-0.5-0.6-0.2-2.2,0-3.3c0.3-0.1,0.7-0.2,1.1-0.3
		c0,0.7-0.1,1.5-0.1,2.4C83.4,32.9,83.5,33.3,83.5,33.7L83.5,33.7z M82.5,22.4c0.6,0.2,1.4,0.3,2.1,0c0.4-0.2,0.9-0.7,1.2-1.8
		c0.1,0,0.1,0,0.2,0l0.1,0.2v0.1l0,0c0,0,0.3,1.5-0.5,1.9c-0.9,0.5-1.7,1.2-2.2,1.9c-0.3-0.3-0.4-0.4-0.4-0.4
		c-0.2-0.2-0.6-0.3-0.9-0.2c-0.2,0.1-0.4,0.3-0.5,0.5c0,0.1-0.3,0.3-1.3,0.6C80.2,24.6,80.7,23.6,82.5,22.4
		C82.5,22.5,82.5,22.5,82.5,22.4L82.5,22.4z M82.6,35.5c0.2,0.5,0.4,1.3,0.6,1.8c0,0.1-0.1,0.1-0.1,0.2c-0.2,0.7-0.5,1.2-0.8,1.3
		c-0.5,0.1-1.4-0.7-2.1-1.7C81.3,36.7,82,36.3,82.6,35.5L82.6,35.5z M82.4,29.1c-0.1-0.4-0.4-1.6-0.2-2.5c0-0.1,0-0.1-0.1-0.2
		c-0.1,0-0.1,0-0.2,0c0,0-0.9,1.1-1.8,1.6c-0.1-0.2-0.3-0.7-0.3-1.7c0,0,0-0.1,0.1-0.1c1.6-0.3,2.1-0.8,2.3-1.2
		c0.3,0.3,0.9,0.9,1.8,1.5c-0.2,0.5-0.3,1.2-0.4,2.1C83.4,28.8,82.9,29,82.4,29.1L82.4,29.1z M77.3,29.4c0.1-0.2,0.2-0.3,0.2-0.5
		c0.3-0.1,0.8-0.4,1.4-0.9c0.1,0.2,0.1,0.5,0.2,0.9c-0.7,1.4-1.8,2.5-2.3,3.2c-0.1,0-0.2,0-0.3,0.1c-2.6,1.6-4.5,2.1-5.7,1.5
		c-0.5-0.3-0.8-0.8-1.1-1.3C74.1,32.9,77.2,29.6,77.3,29.4L77.3,29.4z M77.4,33.8c0.3,0.1,0.6,0.2,0.9,0.2c0,0.3,0.1,0.9,0.3,1.6
		c-0.1,0-0.2,0.1-0.2,0.2c0,0-3.1,3.1-6.2,3.1c-1.6,0-2.3-0.7-2.6-1.4C74.8,37.6,76.7,35.2,77.4,33.8L77.4,33.8z"/>
	<path class="st0" d="M14.9,98.1c0.1-0.4,0.1-1.1-0.2-1.2c-0.3-0.1-0.5,0.2-0.6,0.3l0,0l0,0c0,0-0.4,0.8-1.8,0.8
		c-0.9,0-1.8,0.4-2.3,1.1c-0.3,0.4-0.4,0.9-0.2,1.4c0.3,0.8,0.9,1.3,1.4,1.2c0.1,0,0.3-0.1,0.2-0.5V101c0-0.2-0.1-0.4-0.1-0.5
		c0,0,0.1,0,0.2,0.1c0.5,0.2,0.9,0.3,1.3,0.1c0.1-0.1,0.3-0.3,0.2-0.7c-0.1-0.2-0.1-0.3-0.2-0.5c0-0.1-0.1-0.2-0.1-0.2
		s0.1-0.1,0.6-0.1C14.4,99.2,14.7,99.2,14.9,98.1L14.9,98.1z M11.4,99.6c-0.1,0-0.1,0-0.2,0C11.3,99.6,11.3,99.5,11.4,99.6
		L11.4,99.6L11.4,99.6z"/>
	<path class="st0" d="M126.6,97c-0.3-0.1-0.5-0.2-0.7-0.4c-0.3-0.2-0.6-0.5-1.5-0.5c-0.4,0-0.6,0.1-0.8,0.3
		c-0.3,0.4-0.1,1.2,0.3,2.2c0.1,0.3,0.2,0.4,0.2,0.5c-0.5-0.2-1.2-0.3-1.7-0.5c-0.3-0.2-0.7-0.1-0.9,0c-0.6,0.4-0.7,1.9-0.7,3.2
		c-1.6,0.1-2.7,1.2-3.7,2c0-0.5-0.1-1.3-0.3-1.6c-0.2-0.2-0.6-0.3-1.2-0.3c-0.5,0-1.2,0.2-1.8,0.6c0-0.3,0-0.6-0.1-0.9
		c-0.1-0.2-0.3-0.4-0.6-0.5c-0.4-0.1-1.2-0.1-1.7,0.4c-0.2,0.2-0.3,0.5-0.2,0.8c0.1,0.5,0.7,1.1,1.3,1.4c-0.1,0.1-0.1,0.2-0.2,0.3
		c-0.3,0.4-0.4,0.8-0.2,1.3c0.2,0.7,1.3,1.3,2.3,1.6c-1.4,1.3-2.9,2.3-4.6,1.9c-0.3-0.3-2-2.1-5.4-1.3l-0.3,0.1
		c-3.4,0.8-6,1.5-7.3,4.7c-0.4,1.1-0.7,1.5-1.2,1.9c-0.8,1.1-1.5,1.8-2,8c-0.5,0.2-2.9,0.9-4.5,1.9c-0.3,0.1-0.6,0.2-1.1,0.2
		c-0.8,0.1-1.8,0.1-2.9,1.6c-0.7,0.5-1.1,0.4-1.5,0.4c-0.4-0.1-0.9-0.1-1.6,0.4c-0.4,0.2-0.9,0.3-1.3,0.3c0.2-0.5,0.8-2,2.2-2.3
		c1.3-0.3,4.4-1.4,5.8-3.1l0,0c0.4-0.9,1.2-1.5,1.7-1.9c0.6-0.5,1.3-0.9,0.8-2c-0.3-0.7,0-1.5,0.3-2.2c0.3-0.7,0.5-1.5,0.1-2
		c0.5-0.2,1.8-0.6,2.1-1.2c0.1-0.2,0.1-0.4,0.1-0.5c-0.1-0.3,0-0.7,0.1-1.3c0.2-0.8,0.3-1.7,0-2.2c-0.2-0.2-0.5-0.3-0.8-0.4
		c-0.1-0.2-0.4-0.8-1.1-0.9c-0.4-0.1-0.9,0.1-1.5,0.5c-0.3-0.1-1.1-0.3-1.6,0c-0.3,0.2-0.4,0.6-0.4,1.3l-1.1,1.7
		c-0.4-0.1-1.6-0.2-3.7,1.2l-0.8,0.5c-2.1,1.4-3.8,2.4-4.3,4.9c-0.3,1.3-0.5,1.9-0.6,2.3c-0.1-0.1-0.3-0.2-0.4-0.3
		c-0.5-0.3-1.1-0.5-1.6-0.7c-0.9-0.4-1.8-0.7-2.3-1.5c-1.1-1.5-2.6-1.6-4.6-0.3c-2.2,1.4-4,1.2-6.4,0.2c-0.4-0.2-0.8-0.3-1.4-0.5
		c-2.5-0.9-6.1-2.3-7.4-4.1c-0.2-0.3-0.4-0.6-0.6-1.1c-1.1-1.7-2-3.1-4.3-3.1c-0.2-0.1-1.7-0.6-3.4,0.5l0,0l-0.1,0.1
		c-0.1,0-0.2-0.1-0.3-0.2c-0.5-0.5-1.1-0.7-2.2,0.1c-0.1,0.1-2,1.5-2.6,2.9c-0.1,0-0.2-0.1-0.2-0.2c-0.8-2-1.8-3.2-2.8-3.5
		c-0.8-0.2-1.5-0.9-2.1-1.8c-0.4-0.5-0.8-0.9-1.4-1.4c-0.4-0.3-0.8-0.5-1.2-0.4c-0.7,0.1-1.4,0.8-1.9,1.7l-0.2,0.2
		c-0.6,0.8-1.8,1.7-2.7,2.4c-0.4,0.3-0.8,0.6-1.2,0.8c0,0,0,0-0.1,0.1c-0.4-0.3-0.7-0.6-0.8-0.9c-0.4-1.4-1.7-3.1-2.3-3.8
		c0.2-0.8,0.1-1.8-0.5-2.5c0.7,0,1.2-0.4,1.7-1.4c0.2-0.4,0.2-0.7,0-1.1c-0.3-0.4-1.1-0.7-2.3-0.7c-1.1,0-2,0.8-2.4,1.4
		c-0.6,0-1.4,0.1-2.2,0.4c0.1-0.4,0-0.9-0.3-1.3c-1.5-1.3-3.8,0.9-4.8,2c-0.8,0.8-0.9,1.7-0.8,2.2l0,0c-0.1,0-0.1,0-0.2,0.1
		c0,0-0.2,0-0.3-0.1c-0.3-0.1-0.7-0.2-1.4-0.2c-0.2-0.9-0.7-2.5-2-2.5c-0.2,0-0.3,0-0.5,0.1c0-0.1,0-0.2,0-0.3
		c0-0.4-0.2-0.8-0.4-1.1c-0.3-0.3-0.6-0.4-1.1-0.4c-0.8,0-1.6,0.7-1.6,1.6c0,0.4,0.2,0.8,0.4,1.1c0.1,0.1,0.2,0.1,0.3,0.2
		c-0.3,0.2-0.5,0.5-0.7,0.8c-0.1,0.3-0.1,0.7,0.3,1.3c0.4,0.4,0.9,0.9,1.6,1.5c-0.2,0.4-0.3,0.9-0.4,1.5c0,0,0,0,0,0.1
		c-0.3,0.1-0.8,0.4-0.8,0.8c0,0.4,0.4,0.7,0.7,1.1c0,0.7,0,1.5,0.1,2.2c-0.2,0.3-0.4,0.6-0.1,0.9c0.1,0.1,0.3,0.2,0.5,0.3
		c0.1,0.1,0.1,0.2,0.2,0.3c0.3,0.3,0.6,0.7,0.9,1.1c0.1,0.1,0.1,0.1,0.2,0.2c-0.1,0.4-0.2,1.2,0.3,1.4c0.3,0.1,0.7,0.1,1.1,0
		c0.3,0.2,0.5,0.4,0.9,0.6c0.4,0.2,0.8,0.5,1.3,0.8c0,0.4,0,1.2,0.5,1.2c0.3-0.1,0.6-0.1,0.8-0.1c1.2,0.8,2,1.7,2,1.9
		c-0.4,0.5-1.8,2-2.4,2c-0.3,0-0.5,0.1-0.6,0.3c-0.3,0.4-0.3,1.3,0,2.1c-0.3,0.2-1.3,1.2-0.8,1.8c0.1,0.2,0.3,0.4,0.5,0.6
		c0.2,0.2,0.5,0.5,0.4,0.7c0,0.1-0.2,0.2-0.4,0.3c-0.7,0.3-1.8,0.7-2,1.7c-0.2,0.6,0.1,1.4,0.7,2.2c0,0,0,0,0.1,0.1l-0.4,0.5
		c0,0-1.4,0.3-0.9,1.4c0.4,1.1,2.2,1.2,1.9-0.5l0.4-0.4c0.7,0.5,1.6,0.7,2.3,0.5c0.7-0.2,1.2-0.9,1.3-1.9c0.7,0.3,3.5,1.4,6.1,1.3
		c0.3,0.3,0.7,0.6,1.3,0.4c0.4-0.1,0.6-0.4,0.7-0.6c0.6,0,2,0.1,3.3,0c0.2,0.2,0.4,0.5,0.9,0.4c0.5,0,0.6-0.4,0.5-0.7
		c0.3-0.1,0.5-0.2,0.7-0.3c0.5-0.3,1.8-0.5,3.8-0.5c0,0.1,0.1,0.2,0.2,0.3c0.6,1.1,0.9,1.4,1.2,1.6c0.1,0.1,0.1,0.1,0.1,0.3
		c-0.1,0.3-0.1,0.6,0.1,0.8c0.2,0.2,0.5,0.4,1.1,0.4l0,0c1.1,0.1,1.8,0.2,2.3,1.1l0.1,0.1c0.2,0.4,0.4,0.7,0.7,0.7
		c0.3,0.1,0.7-0.1,1.5-0.5c1.2-0.7,2.3-0.1,2.5,0.1c0.1,0.2,0.6,1.1,1.3,0.9c0.4,0,0.6-0.4,0.8-1.1c0.3-0.2,0.6-0.2,1.1-0.2
		c0.6,0,1.3,0,2.5-0.6c0,0,2.5-1.7,4-2.4c0.2,0.4,0.3,0.8,0.4,1.3c0.2,1.3-5.3,3.8-3.2,7.2c0.3,0.4,0.5,0.3,0.5,0.3
		s-0.4-1.2,0.2-1.9c0.6-0.6,3.5,0.2,5-1.6c0.4,1.9,2.5,2.1,2.5,2.1c0.1,0,0.1-0.1,0.2-0.1l0.7-4.8c0.3,0.6,0.6,1.1,1.2,1.4
		c0.6,0.3,1.2,0.2,1.5,0.2c1.5,2.4,3.5,1.8,3.8,1.7c0.9,0,1.4-0.2,1.5-0.5c0-0.1,0.1-0.5-1.5-1.5c-0.2-0.1-0.2-0.2-0.2-0.2
		c0-0.1,0.1-0.1,0.3-0.2c0.6-0.1,1.9,0.3,3.1,2.3c1.5,2.8,4.5,2,4.5,2c0.1,0,0.1-0.1,0.1-0.1c0-0.1,0-0.1-0.1-0.1
		c-0.7-0.2-0.9-1.1-0.9-1.5c1.8,1.4,3.5,2,4.9,1.8c1.7-0.2,2.5-1.4,2.5-1.4c0-0.1,0-0.1,0-0.2c0-0.1-0.1-0.1-0.2-0.1
		c-1.9,0.5-2.7-0.2-3.6-1.3c0.8-0.1,2.1-0.7,3.8-2.9c0.3-0.1,2.8-0.7,5.3,0c0.2,0.1,0.5,0.2,0.8,0.3c3.1,1.1,9.3,3.2,13.5-0.2
		c2.8-2.2,3.5-3.6,3.6-4.4c0-0.2,0-0.3,0-0.4c0.5,0.1,0.8,0.1,0.9,0.1h0.1c0.9,0.1,2.2,0.4,3.3,0.8c0.2,0.1,0.4,0.2,0.7,0.3
		c-0.2,0.3-0.7,1.1-0.1,1.4c0.8,0.4,2.7-0.8,2.7,0.3c0,1.2,0.9,0.9,2.6,0.2c0,0,0.7-0.2,0.8,0.2c0.1,0.4,0.5,0.9,1.2,0.8
		c0.3,0,0.7-0.5,1.2-0.9c0.5,0,1.1-0.1,1.7-0.2c0.5,0.4,1.1,0.5,1.4,0.2c0.2-0.2,0.3-0.5,0.3-0.8c0.7-0.4,1.3-0.9,1.6-1.6
		c0.4-0.9,0.4-1.9,0.3-2.5c0.2-0.2,0.5-0.6,0.6-1.2c0.1-0.7-0.7-0.6-1.3-1.5c-0.2-0.4-0.5-0.8-0.8-1.2c-0.1-0.2-0.2-0.5-0.3-1.1
		c-0.1-1.2-1.3-1.7-1.6-0.3c-2.9-1.5-6.9-1.3-9.7-0.6c-0.7,0.2-1.6,0.4-2.3,0.6c-2.3,0.7-4.6,1.4-5.7,0.2c0.1-0.4,0.7-2.1,4.1-3.3
		c2.4-0.8,8-3.2,9-6.7c1.2,0.1,9.3,0.4,11.3-2.4c1.8-2.5,3.3-4.6,1.6-6.8c0.8-0.6,1.4-1.3,1.9-2c0.3-0.5,0.4-0.8,0.3-1.3
		c-0.1-0.3-0.4-0.6-0.8-0.8c0.1-0.2,0.4-0.5,1.4-0.7c0.6-0.1,0.7-0.5,0.8-0.7C127.9,97.7,127.2,97.1,126.6,97L126.6,97z M22.2,100
		c0.7,0,1.2,0.1,1.4,0.2c-0.4,0.8-0.5,0.8-1.4,0.5c-0.3-0.1-0.5-0.2-0.7-0.3C21.7,100.1,22,100,22.2,100L22.2,100z M112.8,102.4
		c-0.1-0.1-0.2-0.2-0.3-0.2c0.1,0,0.2-0.1,0.3-0.1C112.8,102.2,112.8,102.3,112.8,102.4L112.8,102.4z M118.3,127.2
		c0,0.1,0,0.3,0.1,0.4c0,0,0.4,1.2-0.1,2.1c-0.3,0.6-0.9,1.2-2,1.4c-3.3,0.9-7.6-0.7-9.9-1.7c-0.3-0.1-0.6-0.2-0.9-0.3
		c-2.1-0.7-4.6-1.1-4.7-1.1s-0.2,0-0.3,0c-1.6-0.4-1.8-0.8-1.8-2c0-0.9,0.6-1.4,1.1-1.5c1.4,0.1,3.1-0.3,4.8-0.8
		c0.7-0.2,1.5-0.4,2.2-0.6c2.7-0.6,6.8-0.8,9.5,0.8C118.4,125.2,118.3,127.1,118.3,127.2L118.3,127.2z M99.8,129.5
		c0,0.1,0,1.3-3.2,3.7c-3.7,2.9-9.4,1.1-12.4,0l0,0c-0.3-0.1-0.5-0.2-0.8-0.3c-2.5-0.8-5-0.2-5.8-0.1c0-0.7,0.1-1.9-0.1-2.5
		c-0.2-0.7,0.5-1.5,1.1-1.9c0.9-0.1,1.7-0.3,2.2-0.5c0.3,0,0.9,0,1.7-0.3c-0.2,0.4-0.6,1.4-0.1,1.5c0.6,0.2,2.1,0.5,1.6-1.8
		c0.5,0.1,1.2,0,2.1-0.6c0.1,0,0.1-0.1,0.1-0.1c0.9-1.1,1.5-1.2,2.2-1.2c0.4,0,0.9-0.1,1.5-0.3h0.1c1.7-0.9,4.4-1.8,4.4-1.8
		s0,0,0.1,0c0.6,0.4,2.1,0.9,3.4,0.4l0,0c0.2,0.2,0.4,0.4,0.7,0.6c-0.5,0.4-0.8,1.2-0.8,2c-0.1,0.6,0.1,1.2,0.5,1.7
		c0.4,0.5,1.1,0.8,1.7,1.1C99.6,129.1,99.7,129.3,99.8,129.5L99.8,129.5z M69.7,136.7c-0.3,0.1-0.5,0.5-0.5,0.8s0.1,0.7,0.1,1.1
		c-0.6-0.2-1.2-0.7-1.6-1.4c-1.3-2.4-3.1-3.1-4.2-2.9c-0.2,0-0.4,0.1-0.6,0.2c0.2-0.3,0.3-0.6,0.3-1.1c0.5,0.1,2.2,0.2,3.1-0.5
		c0.1,0.1,0.2,0.1,0.3,0.2c0.1,0,0.2,0,0.3,0.1c0.9,0.5,4,2.2,5.2,3.4c0.3,0.3,0.5,0.5,0.7,0.8c0.4,0.4,0.8,0.9,1.4,1.4
		c-1.1-0.1-2.2-0.7-3.5-1.8C70.4,136.6,70,136.6,69.7,136.7L69.7,136.7z M53.1,136.9L53.1,136.9L53.1,136.9L53.1,136.9L53.1,136.9z
		 M53.2,136.6L53.2,136.6L53.2,136.6L53.2,136.6L53.2,136.6z M54.9,137c0-0.1-0.1-0.3-0.1-0.4c0.2-0.8,0.5-2.5,0.4-3.3
		c0-0.4-0.2-0.6-0.4-0.7c-0.4-0.2-0.6,0.1-0.7,0.2c0,0,0.5,3.9-1.8,4.7c-0.6,0.2-1.6,0.2-2.3,0.4c-0.5,0.1-1.1,0.4-1.2,0.3
		c0.2-1.9,3.5-2.5,3.5-4.6c0-1.7-1.6-3.3-1.9-3.6c-0.1-0.1-2.1-2.1-2.4-4.3c0,0,0.1-0.1,0-0.1c0-0.2-0.1-0.3-0.1-0.5
		c0-0.2,0-0.5,0.1-0.7c0.5-2.2,2.1-4.6,4.8-4c0.1,0.1,0.8,0.2,1.4,0.8c0.3,0.4,0.4,0.8,0.5,1.1c0.1,1.1-1.4,1.5-1.5,1.4
		c0,0,0-2.2-1.2-2.2c-1.1,0-2.1,0.9-2.3,2c-0.3,1.2,0.3,2.1,1.6,2.6c0.4,0.2,0.8,0.3,1.2,0.5c0.6,0.3,1.2,0.5,1.7,0.6
		c-0.1,0-0.1,0-0.2,0s-0.1,0-0.1,0.1c0,0-0.1,0.2,0.1,0.5c0.2,0.4,0.8,0.6,1.8,0.7c1.9,0.2,3.9,0.7,3.9,2.7c0,1.5-0.8,2.2-1.2,2.4
		c-0.2-0.6-1.1-2.7-3.7-3.8c-3.3-1.2-4.5-2.3-4.9-4.6c0,0,0-0.1-0.1-0.1c-0.1,0-0.5-0.3-0.9,0c-0.2,0.1-0.2,0.4-0.2,0.8
		c0,0.1,0.6,2.6,2.9,3.7c0.4,0.2,0.8,0.4,1.3,0.6c1.7,0.7,3.2,1.4,3.9,2.7c-0.3,0.1-0.4,0.4-0.5,0.7l-0.6,4.4
		C55.2,138,54.9,137.6,54.9,137L54.9,137z M42.1,135.4c0-0.1-0.1-0.1-0.1-0.2c-0.1-0.1-0.2-0.2-0.3-0.3c-0.1-0.1-1.9-1.4-3.8-0.1
		c-0.2,0.1-0.4,0.2-0.5,0.3c0-0.1-0.1-0.1-0.1-0.2l-0.1-0.1c-0.7-1.3-2-1.4-3.1-1.6l0,0c-0.1,0-0.1,0-0.2,0c0.1-0.5,0.1-0.8-0.3-1.3
		c-0.1-0.1-0.4-0.4-0.9-1.4c-0.9-1.6,0.5-3.9,1.1-4.6c0.4-0.7,3.2-2.4,5.7-2.4c2,0,5.7,1.4,7.4,1.9c0.2,2.8,2.7,5.4,2.8,5.6
		c0,0,0.2,0.2,0.5,0.5c-1.5,0.8-3.6,2.2-3.9,2.4c-0.9,0.5-1.5,0.5-2,0.5c-0.4,0-0.9,0-1.6,0.3C42.4,134.8,42.2,135,42.1,135.4
		L42.1,135.4L42.1,135.4z M21.7,130.7c-2.9,0.8-7.3-0.9-7.3-1.1c-0.3-0.1-0.6-0.1-0.9,0.1c-0.3,0.2-0.4,0.4-0.4,0.7
		c0,0.3-0.1,0.9-0.5,1.1c-0.4,0.1-1.4-0.1-2.1-1.2c-0.4-0.5-0.6-0.9-0.5-1.3c0.1-0.2,0.3-0.5,1.4-0.9c0.6-0.2,0.9-0.6,1.2-1.1
		c0.2-0.7-0.4-1.4-0.7-1.7c-0.1-0.1-0.1-0.1-0.2-0.2c0.1-0.2,0.3-0.4,0.5-0.6c0.3-0.3,0.4-0.7,0.3-1.1c-0.2-0.5-0.2-0.8-0.2-1.1
		c1.4-0.2,3.1-2.4,3.1-2.4c0.2-0.2,0.2-0.5,0.2-0.8c-0.3-1.5-4.9-4.3-5-4.4c-1.1-0.6-1.6-1.3-2.2-2c-0.3-0.3-0.6-0.7-0.9-1.1
		c-0.4-0.4-0.5-2.7-0.3-4.8c0.1-1.1,0.5-1.8,1.1-2.2c0.9-0.6,2.3-0.3,2.9-0.1c0.3,0.1,0.5,0.1,0.8,0.1c0.1,0,0.2-0.1,0.3-0.1
		c0.2-0.1,0.3-0.1,0.3-0.1l0,0c0.2,0.3,0.2,0.4,0.3,0.5c0.1,0.2,0.1,0.4,0.3,0.8c0.2,0.4,0.8,1.3,1.6,2.3c0.5,0.7,1.1,1.5,1.4,1.9
		c0.5,0.7,1.5,2.6,2.7,5.3c0.2,0.3,0,2-0.3,3.4c0,0.2,0,0.4,0,0.5c-0.2,0.6-0.4,1.5-0.1,1.6c0.4,0.2,0.8,0.1,1.4-1.1
		c0.2-0.1,0.3-0.2,0.4-0.3l0,0c0,0,0.3-0.3,2.6,0.2h0.1c0.8,0.2,2.3,0.7,2.9,1.3c0.2,0.2,0.6,0.6,1.1,1.1c1.1,1.1,2.4,2.4,3.4,3.2
		c0.7,0.5,1.5,0.8,2.1,0.9c-0.4,0.8-0.9,2.1-0.8,3.3c-2.1,0.1-3.5,0.3-4.1,0.7c-0.6,0.4-3.2,0.5-5.2,0.4
		C21.9,130.7,21.8,130.7,21.7,130.7L21.7,130.7z M8.6,103.5c-0.4,0.1-0.9,0.2-1.4,0.5c-0.2,0.1-0.4,0.3-0.5,0.5
		c-0.5-0.5-0.9-0.9-1.4-1.3l-0.1-0.1c0.2-0.4,1.5-1.1,2.5-1.1C8,102,8.4,102.6,8.6,103.5L8.6,103.5z M13.2,102.3
		c2.3-2.2,3.1-2.2,3.4-2c0,0.1,0,0.5-0.7,1.7c-0.4,0.7-0.8,1.4-0.8,2.1c-0.5,0.2-1.1,0.4-1.5,0.6c-0.1-0.2-0.2-0.3-0.4-0.6
		c-0.1-0.2-0.3-0.3-0.5-0.4C12.7,103.4,12.7,102.9,13.2,102.3L13.2,102.3z M31.4,106.5l0.2-0.2c0.3-0.4,0.8-1.2,1.2-1.2
		c0,0,0.2,0.1,0.3,0.2c0.4,0.3,0.8,0.8,1.2,1.3c0.7,0.9,1.6,1.9,2.7,2.2c0.2,0,1.1,0.4,2.1,2.8c0.2,0.4,0.5,0.7,1.1,0.9
		c0,0.3,0.2,0.6,0.5,0.8c1.2,1.1,2.3,1.2,3.3,1.3c0.7,0.1,1.4,0.2,1.9,0.6c1.4,1.4,2.7,2.3,3.9,2.8c0.5,0.2,1.3,0.7,1.9,1.3
		c-2.2,0.2-4,2.1-4.6,4.9v0.1c-0.8-0.3-1.9-0.7-3.1-1.1c0.1-0.2-0.1-0.6-0.2-1.1c-0.3-0.8-1.6-1.9-1.4-1.1c0,0,0.1,0.4,0.1,0.9
		c0,0.2,0,0.5,0.1,0.7c-0.8-0.2-1.8-0.4-2.4-0.4c0-0.2-0.1-0.4-0.3-0.7c-0.5-0.6-0.6-0.5-0.6-0.2c0,0-0.2,0.5,0,0.9
		c-1.1,0.1-2.2,0.4-3.2,0.8c0.1-0.3,0-0.7-0.1-1.2c-0.1-0.5-0.2-1.2-0.4-0.7c0,0-0.5,0.5-0.4,1.4c0.1,0.5,0.2,0.8,0.4,0.8
		c-1.2,0.6-2,1.3-2.3,1.8v0.1c-0.5-0.1-1.3-0.3-2-0.8c-0.6-0.5-1.6-1.4-2.4-2.2c0.1-0.5,0.3-1.5,0.1-1.8c-0.3-0.3-0.7,0.1-0.9,0.8
		c-0.4-0.4-0.7-0.7-0.9-0.9c-0.1-0.1-0.3-0.2-0.5-0.4c0-0.4,0-1.2-0.2-1.2c-0.3-0.1-0.5,0.3-0.6,0.7c-0.7-0.3-1.5-0.6-2.1-0.7h-0.1
		c-0.1,0-0.2,0-0.3-0.1c0.1-0.4,0.3-1.2,0.1-1.1c-0.2,0-0.7,0.5-1.1,0.9c-0.7-0.1-1.6-0.1-2.1,0.2c0.1-0.6,0.3-2,0.3-2.9l0.1-0.1
		c1.5-1.2,6.4-5,7.5-5.8c0.3-0.2,0.6-0.5,1.1-0.8C29.5,108.3,30.7,107.5,31.4,106.5L31.4,106.5z M41.4,111.8L41.4,111.8l0.1-0.2
		c0.4-0.7,1.5-1.7,2.2-2.3c0.3-0.2,0.5-0.3,0.6-0.3l0.1,0.1c0.4,0.4,0.9,0.5,1.3,0.5c0.3,0,0.5-0.2,0.8-0.4c1.2-0.8,2.2-0.4,2.2-0.4
		c0.1,0.1,0.2,0.1,0.4,0.1c1.8,0,2.3,0.9,3.5,2.6c0.2,0.3,0.4,0.6,0.7,1.1c1.2,1.6,3.7,2.8,6,3.8c0,0,0,0-0.1,0.1c0,0-0.4,0.3,0,0.8
		c0.4,0.5,1.5,1.9,1.7,1.6c0.1-0.3-0.2-1.5-0.4-2c0.2,0.1,0.5,0.2,0.7,0.3c0.4,0.2,0.9,0.3,1.4,0.5c2.6,1.1,4.7,1.4,7.4-0.3
		c1.9-1.2,2.6-0.6,3.2,0c0.6,0.9,1.7,1.4,2.7,1.8c0.5,0.2,0.9,0.4,1.5,0.7s0.6,0.5,0.6,0.5l0,0l0,0l0,0l0,0v0.1c0,0-0.5,1.8-1.2,4.2
		c-0.3,1.3-1.2,1.5-1.5,1.5c-4.2-1.7-6.8,0.3-8.6,1.7c-0.6,0.5-1.4,1.1-1.7,1.1c-0.4,0-0.6-0.1-0.8-0.3c-0.1-0.1-0.1-0.2-0.2-0.3
		c-0.1-0.2-0.3-0.4-0.4-0.6c-0.1-0.2-0.2-0.4-0.3-0.6c-0.3-0.6-0.6-1.3-1.1-1.9c-1.2-1.6-4.7-3.6-6.8-4.7c-0.3-0.4-0.8-0.7-1.6-0.9
		c-0.7-0.7-2.2-2-3.3-2.4c-1.1-0.4-2.2-1.3-3.5-2.5c-0.4-0.4-0.9-0.6-1.5-0.8c-0.1-0.6-0.3-1.6-0.6-1.6c-0.4,0-0.7,0.9-0.8,1.4
		c-0.7-0.1-1.5-0.3-2.3-0.9c-0.1-0.1-0.1-0.1-0.1-0.2C41.2,112,41.3,111.9,41.4,111.8L41.4,111.8L41.4,111.8z M87.4,111.2
		L87.4,111.2c0.1,0,0.1,0,0.2,0c-0.1,0.3-0.3,0.8,0.3,0.8c0.8,0,1.6-0.6,0.7-1.6c0.3-0.5,0.9-1.5,0.9-1.5c0.1-0.2,0.2-0.4,0.1-0.5
		c0-0.1,0-0.2,0-0.3c0.1,0,0.3,0,0.5,0.1c0.3,0.1,0.7,0.1,1.1-0.2c0.3-0.3,0.5-0.3,0.5-0.3c0.1,0,0.2,0.2,0.3,0.3
		c0.1,0.3,0.5,0.6,0.8,0.6H93c0,0.1,0,0.4-0.2,1.3c-0.1,0.5-0.2,1.1-0.2,1.6c-0.2,0.2-0.9,0.5-1.7,0.7c-0.4,0.1-0.6,0.4-0.7,0.7
		c-0.1,0.3,0.1,0.7,0.4,0.9c0,0.2-0.2,0.7-0.3,0.9c-0.3,0.8-0.7,2-0.2,3.1c0.1,0.2,0.1,0.2-0.5,0.6c-0.5,0.4-1.4,1.1-2,2.2
		c-0.8,0.9-2.7,1.9-5.2,2.6c-2.2,0.6-3.1,3.2-3.1,3.3c-0.1,0.2-0.1,0.4,0,0.6c-0.9,0.3-3.1,0.8-3.6-0.5c0.5-0.3,1.1-0.8,1.4-1.9
		c0.6-2.2,1.2-4,1.2-4.1s0.1-0.3,0.1-0.6c0.3-0.4,0.6-1.4,1.1-3.2c0.4-2.1,1.8-2.9,3.9-4.2l0.8-0.5C86.4,111,87.4,111.2,87.4,111.2
		L87.4,111.2L87.4,111.2z M55.6,122.2c0-0.1,0-0.1,0-0.2c1.9,1.1,4.3,2.5,5.2,3.7l0,0c-0.6-0.2-1.5-0.2-2.4,0.1
		c-2.9,0.9-3.9,0.5-5.6-0.2c-0.3-0.1-0.7-0.3-1.2-0.5c-0.7-0.3-1.1-0.7-0.8-1.3c0.2-0.6,0.8-1.3,1.2-1.2c0,0,0.7,0.3,0.4,1.6
		c-0.1,0.5,1.7,0.5,2.5,0C55.3,123.9,55.7,123.2,55.6,122.2L55.6,122.2z M16.9,109.7c-0.3-0.5-0.9-1.3-1.5-2c-0.6-0.8-1.2-1.6-1.5-2
		c2.2-1.1,4.3-1.6,4.9-1.2l0,0c0.7,0.4,1.3,0.7,1.3,1.2s-0.2,1.6-3.3,4.3C17,109.8,16.9,109.8,16.9,109.7L16.9,109.7z M58.7,126.8
		c1.8-0.5,2.6,0.1,3.4,1.2c0.2,0.4,0.4,0.7,0.7,1.1c0.6,0.8,1.4,1.7,2.4,1.9c0.6,0.1,0.8,0.2,0.8,0.2s0,0.1-0.1,0.3v0.1
		c0,0.1,0,0.1,0,0.2c-0.6,0.4-2,0.9-4,0.2h-0.1c0,0-0.4,0.3-0.2,1.2c0.1,0.2,0,0.4,0,0.5c-0.1,0.2-0.6,0.3-1.2,0.3
		c-0.2,0-0.4,0-0.6,0.1c0.4-0.5,0.8-1.4,0.8-2.6c0-2.6-1.7-3.7-4.4-4C57,127.4,57.8,127.2,58.7,126.8L58.7,126.8z M19.5,114.7
		c-0.6-1.3-1.4-2.7-1.9-3.9c1.3-1.2,2.2-2.1,2.8-2.9c0.4,0,1.7,0,2.3-1.3c0.1-0.2,0.2-0.5,0.3-0.8c0.6,0.7,1.3,1.9,1.6,2.7
		c0.1,0.4,0.5,0.8,1.1,1.3C23.9,111.3,20.8,113.8,19.5,114.7L19.5,114.7z M21.7,106.2c-0.1,0.3-0.4,0.5-0.6,0.5
		c0.2-0.4,0.3-0.8,0.2-1.3c-0.1-1.1-1.1-1.6-1.8-2l0,0c-0.7-0.4-2.1-0.2-3.4,0.2c0.1-0.3,0.3-0.7,0.5-1.1c0.1-0.2,0.2-0.3,0.3-0.5
		c0.1-0.1,0.3-0.1,0.5-0.2c2.6-1.1,3.3-0.4,4.4,0.7C22.7,103.2,22.6,104.3,21.7,106.2L21.7,106.2z M62.3,135.2
		c0,0.1-0.1,0.1-0.1,0.2c0,0.2-0.1,0.9,0.7,1.4c0,0,0,0,0.1,0c-0.3,0.1-1.4,0.3-2.4-1.3C61.2,135.6,61.8,135.5,62.3,135.2
		L62.3,135.2z M73.5,135.8L73.5,135.8C73.4,135.8,73.4,135.8,73.5,135.8c-0.1,0-0.3-0.1-0.6-0.1c-0.6-0.6-1.9-1.5-2.9-2.1
		c0-0.2,0.1-0.6-0.1-0.9c-0.2-0.4-1.1,0-1.4,0.1c-0.6-0.3-1.1-0.6-1.3-0.6l0,0V132c0.1-0.3,0.2-0.7,0-1.2c-0.2-0.4-0.8-0.6-1.7-0.7
		c-0.2,0-0.3-0.1-0.4-0.1c0.6-0.2,1.3-0.6,2-1.2c1.8-1.4,3.9-3.1,7.6-1.5l0,0c0,0,0.2,0,0.5,0c0.2,0.5,0.6,1.3,2,1.4
		c-0.6,0.6-0.7,1.3-0.6,2.3c0.1,0.7,0.1,2,0.1,2.7C74.6,136.1,73.5,135.8,73.5,135.8L73.5,135.8z M97.5,122.4
		c-0.6,0.1-1.8,0.2-2.6-0.3c0.5-5.8,1.1-6.5,1.8-7.4c0.4-0.5,0.8-1.1,1.3-2.2c1.1-2.7,3.3-3.3,6.5-4l0.3-0.1c2.2-0.5,3.6,0.3,4,0.7
		c-0.3,0.5-0.8,1.7-0.4,2.6c0.2,0.7,0.9,1.3,2,1.6c-1.2,1.8-4,3.7-8,5.2C98.7,119.8,97.8,121.7,97.5,122.4L97.5,122.4z M110.7,112.4
		c-0.7-0.2-1.3-0.5-1.4-0.9c-0.2-0.5,0.2-1.4,0.3-1.7c3.1,0.6,5.5-2.2,7.2-4.1c0.3-0.4,0.6-0.7,0.9-0.9c1.7-1.6,3.2-2.7,5.2-1.1
		s1.4,2.9-0.9,6.2c-1.2,1.7-6.7,2.1-10.4,1.9C111.2,111.7,110.8,112,110.7,112.4L110.7,112.4z M113.2,104.5c1.1-1.4,2.3-1.6,2.7-1.6
		c0.1,0.2,0.1,0.8,0,1.5c0,0.2,0,0.3,0,0.5c-0.2,0.2-0.4,0.5-0.7,0.8c-1.7-0.5-2-0.8-2.1-1.1C113.1,104.8,113.1,104.8,113.2,104.5
		L113.2,104.5z M123.7,102.9c-0.6-0.5-1.2-0.7-1.7-0.9c0-1.1,0-1.9,0.2-2.3c0.5,0.2,1.2,0.4,1.7,0.6c0.4,0.1,1.5,0.4,1.7,0.6
		c0,0,0,0.1-0.1,0.2C125,101.7,124.5,102.3,123.7,102.9L123.7,102.9L123.7,102.9z M125,98.1c-0.2-0.5-0.3-0.7-0.3-0.9
		c0.3,0,0.3,0.1,0.5,0.3c0.2,0.2,0.5,0.4,1.1,0.6l0,0c-0.4,0.1-0.8,0.3-1.2,0.6C125.1,98.4,125,98.2,125,98.1L125,98.1z M5.3,100.3
		c0.1-0.1,0.2-0.1,0.3-0.1s0.2,0,0.3,0.1s0.1,0.2,0.1,0.3c0,0.2-0.2,0.4-0.4,0.4c-0.1,0-0.2,0-0.3-0.1s-0.1-0.2-0.1-0.3
		C5.2,100.5,5.3,100.4,5.3,100.3L5.3,100.3z"/>
	<path class="st0" d="M27.6,111c-0.6,0.1-1.7,1.7-0.8,1.8c0,0,1.5-0.8,1.7-1.3C28.7,111.1,28.1,110.7,27.6,111L27.6,111z"/>
	<path class="st0" d="M28.9,113.2c0.6,0.2,0.9-0.3,1.4-0.8c0.3-0.6,0-1.5-0.5-0.7C29.6,111.6,28.1,113,28.9,113.2L28.9,113.2z"/>
	<path class="st0" d="M31.4,114.1c0.4-0.6,0.8-1.4,0.6-2c-0.1-0.6-0.5-0.3-0.5-0.3s-1.2,1.4-1.1,1.8C30.6,114.1,31,114.7,31.4,114.1
		L31.4,114.1z"/>
	<path class="st0" d="M34.4,114.7c0.6-0.1,0.4-0.9,0.2-1.7c-0.2-0.7-0.3-1.2-0.6-0.8c0,0-0.4,0.5-0.4,1.2
		C33.6,114.1,33.8,114.9,34.4,114.7L34.4,114.7z"/>
	<path class="st0" d="M50.9,28.7c0,0-0.6,0.2-0.5,1.1c0.1,0.8,0.3,1.4,1.4,1.3c1.2-0.1,0.3-2.1,0.1-2.3
		C51.6,28.5,50.9,28.7,50.9,28.7L50.9,28.7z M51.3,30.2c0,0-0.1-0.2-0.1-0.5c0-0.2,0-0.2,0-0.2c0.1,0,0.1,0,0.2,0
		c0.1,0.2,0.2,0.6,0.2,0.8C51.4,30.2,51.3,30.2,51.3,30.2L51.3,30.2z"/>
	<path class="st0" d="M50.9,31.4c0,0-0.4,0.3-0.3,0.9c0.1,0.6,0,1.2,0.9,1.2c0.9,0,1.1-0.6,0.9-1.4C52.2,31.4,51.3,31.1,50.9,31.4
		L50.9,31.4z M51.6,32.7c0,0-0.1,0-0.2,0l0,0c0-0.1,0-0.2,0-0.2c0-0.1,0-0.1,0-0.2s0-0.1,0-0.2h0.1c0.1,0,0.1,0.1,0.1,0.1
		C51.6,32.6,51.6,32.7,51.6,32.7L51.6,32.7z"/>
	<path class="st0" d="M50.9,34.1c0,0-1.1,1.2-0.3,1.5c0.7,0.3,1.3,0.5,1.6-0.5C52.4,34.1,51.7,33.3,50.9,34.1L50.9,34.1z M51.4,34.8
		c0,0.1-0.1,0.2-0.1,0.2s-0.1,0-0.1-0.1c0.1-0.1,0.1-0.2,0.2-0.3l0,0C51.4,34.6,51.4,34.7,51.4,34.8L51.4,34.8z"/>
	<path class="st0" d="M52.5,27.5c0,0-0.6,0.1-0.4,0.8c0.2,0.7,0.5,1.7,1.4,1.5c0.8-0.3,0.7-0.9,0.4-1.9C53.5,27,53,27.3,52.5,27.5
		L52.5,27.5z M53.2,29L53.2,29c-0.1,0-0.2-0.2-0.3-0.7l0.1-0.1h0.1l0,0C53.2,28.4,53.3,28.8,53.2,29C53.3,29,53.3,29,53.2,29
		L53.2,29z"/>
	<path class="st0" d="M52.6,30.9c0,0-0.3,1.6,0.5,1.6s1.4-0.2,1.4-1.3C54.4,29.7,52.7,29.5,52.6,30.9L52.6,30.9z M53.7,31.6
		c0,0-0.1,0-0.3,0c0-0.2,0-0.4,0-0.6c0,0,0,0,0-0.1c0-0.2,0.1-0.2,0.1-0.2s0,0,0.1,0c0,0,0.1,0.1,0.1,0.4
		C53.7,31.4,53.7,31.5,53.7,31.6L53.7,31.6z"/>
	<path class="st0" d="M53.4,32.8c0,0-0.7,0.2-0.7,0.8s-0.3,1.7,0.5,1.6c0.8-0.1,1.7-0.3,1.5-1.6C54.4,32.3,54,32.6,53.4,32.8
		L53.4,32.8z M53.9,34.2c-0.1,0.1-0.3,0.1-0.4,0.2c0-0.1,0-0.1,0-0.2c0-0.1,0-0.3,0-0.4c0,0,0.1-0.1,0.2-0.1s0.1,0,0.2-0.1
		c0,0,0,0.1,0,0.2C53.9,34,53.9,34.1,53.9,34.2L53.9,34.2z"/>
	<path class="st0" d="M54.4,25.6c0,0-0.7,0.4-0.4,1.6c0.3,1.1,0.9,1.2,1.4,0.9s0.7-0.5,0.4-1.6C55.5,25.4,54.9,25,54.4,25.6
		L54.4,25.6z M54.9,26.3L54.9,26.3L54.9,26.3L54.9,26.3L54.9,26.3z M55.2,27.3c0,0-0.1,0-0.1,0.1l0,0c0,0-0.1-0.2-0.2-0.4
		c-0.1-0.4,0-0.6,0.1-0.7c0.1,0.1,0.1,0.2,0.2,0.4C55.2,27.1,55.2,27.3,55.2,27.3L55.2,27.3z"/>
	<path class="st0" d="M54.6,29.5c0.2,0.7,0,1.8,0.9,1.3c0.9-0.4,0.9-0.8,0.7-1.8C56.1,27.7,54.4,28.8,54.6,29.5L54.6,29.5z
		 M55.7,29.9c0,0,0,0-0.1,0.1c0-0.2,0-0.3-0.1-0.5l0.1-0.1C55.7,29.7,55.7,29.9,55.7,29.9L55.7,29.9z"/>
	<path class="st0" d="M55,32.3c0,0.9,0.1,1.8,0.8,1.6c0.8-0.2,1.2-0.6,0.9-1.8C56.6,30.5,55,31.3,55,32.3L55,32.3z M55.8,33
		c0-0.2,0-0.5-0.1-0.8c0,0,0-0.1,0.1-0.1C55.9,32,55.9,32,56,32v0.1C56.1,32.8,56,32.9,55.8,33L55.8,33z"/>
	<path class="st0" d="M78.8,37c-0.2,0-0.5,0.2-0.8,0.5l-0.3,0.3c-0.5,0.5-1.8,1.8-2.1,1.9c-0.1,0-0.1,0.1-0.1,0.2
		c0,0.1,0.1,0.1,0.2,0.1h5.2c0.1,0,0.1,0,0.1-0.1c0-0.1,0-0.1,0-0.2c-0.4-0.5-1.6-2.1-1.7-2.4C79.2,37.2,79,37.1,78.8,37L78.8,37z
		 M78.2,39c0.1-0.1,0.3-0.3,0.3-0.3l0.1-0.1c0.1,0.1,0.2,0.3,0.3,0.4L78.2,39L78.2,39z"/>
	<path class="st0" d="M8.2,87.6c3.2,10.2,5.4,12.1,4.5,6.3C12,88.1,11,83.5,11.6,82.6s0.2-2.4-0.1-3.9c-0.3-1.5,0.5-1.8-0.6-5.5
		s0.1-2.7,0.1-4.6c-0.1-1.9-0.7-1.8-0.4-4.1c0.2-2.3,0.3-5.6,0.3-5.6s-2-0.1-2.2,1.3C8.5,61.5,8.5,77,9.4,82.5
		c1.1,5.5-1.8,0.1-2.2-6.6c-0.4-6.7-0.1-14.4-0.1-14.4s0.3-1.8-1.9-2.3C5.1,59.1,5.1,77.4,8.2,87.6L8.2,87.6z"/>
	<path class="st0" d="M17.2,83c0-3.8-1.4-5.5-0.7-7.8c0.6-2.3,1.1-3.2-0.1-5c-1.2-1.9-0.7-1.7-0.4-4.1c0.3-2.4-0.3-5.8-0.1-7.7
		c0,0-1.1-0.8-1.3,0.1c-0.1,1.1,0.3,13.8,1.1,18.9c0.7,5.2-0.6,2.9-1.1-1.4c-0.3-2.9-1.1-17.1-1.1-17.1s-1.4-1.1-1.7-0.1
		c0,0-0.3,17.1,2.9,23.7C17.7,89.2,17.2,86.8,17.2,83L17.2,83z"/>
	<path class="st0" d="M21.6,79c-0.5-2-0.5-2.4-0.4-4.2c0.1-1.8-0.6-3.3-0.9-5.7c-0.3-2.4-0.5-8.3-0.4-11.6c0,0-0.4-0.5-1.4,0.1
		c0,0,0.1,8.5,0.4,11.7c0.4,3.2-1.3-0.2-1.4-5.7c-0.1-5.5,0-6.5-1.1-5.5c0,0-0.3,16.6,4.3,21.8C20.9,79.9,22.1,81,21.6,79L21.6,79z"
		/>
	<path class="st0" d="M20.8,56.4c0,0-0.5,15.3,3.6,19.5c4.2,4.2,1.1,0.2,1.1-4.6c0-5.7-1.2-4.4-1.3-5.8c0,0-0.2-5.8-0.4-7.5
		c-0.2-1.7-1.5-2.5-1.1,0.2s1.2,10,0.1,10.1c-1.1,0.1-0.8-4.5-0.9-7.3C21.7,58.1,22.1,56.6,20.8,56.4L20.8,56.4z"/>
	<path class="st0" d="M26.7,55.8c0,0-0.7-0.6-0.4,2c0.2,2.6,0.7,5.3-0.1,5.2c-0.9-0.1-0.5-3.4-0.7-4.7c-0.1-1.4-0.4-2.9-0.9-2
		c0,0,0.1,10.3,2.9,14.5c2.8,4.2,2.8,1.1,1.5-1.5c-1.4-2.5-1.6-5.7-1.6-7.9C27.3,59.2,26.7,55.8,26.7,55.8L26.7,55.8z"/>
	<path class="st0" d="M29.4,65.9c1.8,2.5,1.3,0.4,0.8-2.2c-0.4-2.6-0.4-6.6-0.3-8.5c0,0-0.4-0.4-1.1,0c0,0,0.5,4.6,0.1,4.5
		c-0.4-0.1-0.6-1.7-0.7-3.4c-0.1-1.7-0.3-1.2-0.7-0.8C27.5,55.4,27.6,63.4,29.4,65.9L29.4,65.9z"/>
	<path class="st0" d="M6.4,43.1c0,0-0.5,3.3-0.7,8.1s0.1,5.6,2,5.7c2.4,0.1,2.8-1.6,3.3-5.4c0.4-4.1,0.4-6.3,0.5-6.8
		c0.1-0.6-1.3-2.3-1.6,0.2C9.6,47.4,9.7,55.3,8.1,55c-1.6-0.3-1.2-4.3-0.8-7c0.3-2.7,1.2-6,0.1-6.3C6.4,41.5,6.4,43.1,6.4,43.1
		L6.4,43.1z"/>
	<path class="st0" d="M12.1,44.7c0,0-2,11.7,0.1,11.8c3.2,0.1,2.6-3.3,3.1-6.8c0.3-3.7,0.6-4.7-0.1-4.7s-0.9,3.5-1.2,5.4
		c-0.1,1.9,0,4.4-0.9,4.2c-0.9-0.1-0.8-2.8-0.5-5C13.3,44.3,13,43.5,12.1,44.7L12.1,44.7z"/>
	<path class="st0" d="M17,45.9c0,0-0.2-0.5-0.6-0.4c0,0-0.4,4.1-0.5,6.5c-0.1,2.4,0.3,3.5,1.9,3.5s1.5-2.8,1.5-5
		c0.1-2.3,0.6-4.3,0-4.5c-0.6-0.2-0.7,1.5-0.7,3.1c-0.1,1.5-0.2,4.8-0.8,4.8c-0.6,0-1.1-0.7-0.9-3.2C16.8,48.2,17,45.9,17,45.9
		L17,45.9z"/>
	<path class="st0" d="M62.5,55.7c0.5-0.1,0.4-0.5,0.9,0c0.4,0.5,0.5,0.5,1.1,0.4c0.5-0.1,1.3,0.2,1.6,0.5s0.8,0.3,0.7,0.6
		c-0.1,0.3-0.6,0.6,0.6,0.9c1.3,0.2,1.7,0.4,2.1,0c0.3-0.4,0.9-0.4-0.1-1.1c-1.1-0.6-1.4-0.5-2.2-1.4C66.4,55,66.5,55,66,54.8
		c-0.5-0.2-1.3-0.5-2-0.3c-0.8,0.2-1.9,0.2-1.9,0.2S61.7,55,62,55.3C62.1,55.6,61.9,55.8,62.5,55.7L62.5,55.7z"/>
	<path class="st0" d="M68,58.9c-0.4,0-0.6-0.3-1.1-0.3c0,0-0.6-0.1-0.3,0.5c0.3,0.5,0.6,0.6,1.1,0.5C68.1,59.4,68.4,58.9,68,58.9
		L68,58.9z"/>
	<path class="st0" d="M71.1,59.3c0,0,0.8,0,1.3-0.3c0.4-0.2,0.8,0.1,1.3,0.2c0.4,0.1,0.7,0.1,1.1-0.4s-0.1-0.8-0.4-1.2
		c-0.3-0.3-0.9-0.3-1.4-0.1c-0.4,0.2-0.3,0.3-0.7,0.4C71.7,57.9,70.5,59.1,71.1,59.3L71.1,59.3z"/>
	<path class="st0" d="M76,59.6c0.2,0,0.7,0.1,0.9,0.1c0.2,0,0.5,0,0.2-0.6s-0.2-0.7-0.8-0.6c-0.6,0.1-0.5,0.3-0.5,0.3
		S75.8,59.6,76,59.6L76,59.6z"/>
	<path class="st0" d="M78.5,67.2c0.1,0.1,0.4,0.3,0.5-0.1c0.1-0.4,0.1-1.1-0.8-0.8c0,0-0.3,0.2-0.1,0.4
		C78.4,66.9,78.4,67.1,78.5,67.2L78.5,67.2z"/>
	<path class="st0" d="M27.9,48.4c-0.9,7,1.8,4.5,1.8,4.5c0.1-1.8,0.4-4.2,0.4-4.2c-0.2-0.4-0.5-0.2-0.6,0.7
		c-0.1,0.8-0.1,2.9-0.8,2.7c-0.7-0.2-0.1-3.9-0.4-4C28,48.2,27.9,48.4,27.9,48.4L27.9,48.4z"/>
	<path class="st0" d="M24.6,47.6c0,0-0.5,3.5-0.5,4.5c0,1.1,0.5,1.9,2,1.8c1.4-0.1,1.1-2,1.2-3.5c0.1-1.5,0.2-2.4,0.2-2.4
		c-0.7-0.2-0.6-0.1-0.8,1.9c-0.2,2-0.2,2.7-1.2,2.8c-0.9,0.1-0.4-3.7-0.3-4.5C25.2,47.3,24.6,47.6,24.6,47.6L24.6,47.6z"/>
	<path class="st0" d="M20.6,46.7c0,0-0.5,3.4-0.5,6.1c0,2.6,3.1,1.9,3.2-0.1c0.1-2,0.7-5.5,0.7-5.5c-1.1-0.7-1.1,1.3-1.3,3.1
		c-0.2,1.8-0.3,2.8-1.3,2.7c-0.9-0.2-0.3-5-0.2-5.8C21.2,46.3,20.6,46.7,20.6,46.7L20.6,46.7z"/>
	<path class="st0" d="M19.2,109.6c-0.4,0.8-0.2,1.2,0.3,1.2c0.5,0.1,0.6-1.5,0.6-1.5C20,108.8,19.7,108.8,19.2,109.6L19.2,109.6z"/>
	<path class="st0" d="M21.3,109.2c0,0-0.7-0.1-0.5,0.9c0.1,1.1,0.7,1.2,0.9,1.1c0.3-0.2,0.2-1.2,0.2-1.4
		C21.8,109.5,21.6,108.9,21.3,109.2L21.3,109.2z"/>
	<path class="st0" d="M22.8,109c0,0-0.1,0.8,0.3,1.5c0.4,0.5,1.2,0.8,0.9-0.3C23.6,108.9,23.4,108.5,22.8,109L22.8,109z"/>
	<path class="st0" d="M11.5,107c-0.3-0.1-0.5-0.2-0.7,0.2c0,0-0.2,0.6,0.4,0.6S11.8,107.2,11.5,107L11.5,107z"/>
	<path class="st0" d="M8.8,108.6L8.8,108.6c0,0.1,0,0.6,0.3,0.6s0.4-0.2,0.4-0.4C9.5,108.5,9,108.2,8.8,108.6L8.8,108.6z"/>
	<path class="st0" d="M9.7,112.2c0,0-0.4,0.4,0.1,0.7c0.5,0.3,0.6,0.2,0.5-0.4C10.1,112,9.9,112,9.7,112.2L9.7,112.2z"/>
	<path class="st0" d="M12.8,112.1c0,0,0.4,0.2,0.4,0.1c0.1-0.2-0.1-0.4-0.1-0.4S12.6,111.6,12.8,112.1L12.8,112.1z"/>
	<path class="st0" d="M13.3,114.9c0,0-0.2,0.6,0.3,0.7c0.5,0.1,0.5-0.4,0.3-0.6C13.8,114.6,13.3,114.6,13.3,114.9L13.3,114.9z"/>
	<path class="st0" d="M16,115.6c0,0,0.4,0.1,0.4,0c0-0.1,0.1-0.3-0.1-0.4C16.2,115,15.8,115.2,16,115.6L16,115.6z"/>
	<path class="st0" d="M15.5,125.4c0,0,0.9-2.3-0.4-1.8c0,0-0.7,0.4-0.5,1.6c0,0-0.7-0.3-0.2,0.6c0.4,0.9,0.8,1.8,1.7,0.9
		C17,125.9,15.5,125.4,15.5,125.4L15.5,125.4z"/>
	<path class="st0" d="M19,126.9c0,0-0.8,0.6-0.5,0.9c0.2,0.3,1.3,0.4,1.4,0C19.8,127.6,19.3,126.6,19,126.9L19,126.9z"/>
	<path class="st0" d="M22.5,127.6c0,0-0.9,0.3-0.4,0.7c0.4,0.4,1.3,0.5,1.4,0.4C23.3,128.6,23.7,127.4,22.5,127.6L22.5,127.6z"/>
	<path class="st0" d="M19.7,123.6c0,0-1.1,0.5-0.6,0.9c0.4,0.4,1.2-0.3,1.2-0.3S20.5,123.5,19.7,123.6L19.7,123.6z"/>
	<path class="st0" d="M22.9,122.5c0.7,0.3,1.1-0.3,1.1-0.3s-0.5-1.3-1.2-0.8C22.8,121.5,22.1,122.3,22.9,122.5L22.9,122.5z"/>
	<path class="st0" d="M27.1,127.1c0.7,0.3,1.1,0,1.1,0s0.4-0.7-1.4-1.1C26.8,126,26.3,126.7,27.1,127.1L27.1,127.1z"/>
	<path class="st0" d="M37.1,126.6c0-0.7-0.8-0.4-0.8-0.4s-0.4,0.1-0.5,0.4c0,0.3,0.6,0.4,0.6,0.4S37.1,127.4,37.1,126.6L37.1,126.6z
		"/>
	<path class="st0" d="M37.2,130.7c-0.3-0.2-0.8,0.3-0.8,0.3S36,132,37,132c0.9,0,0.8-0.6,0.8-0.6S37.9,131.2,37.2,130.7L37.2,130.7z
		"/>
	<path class="st0" d="M41.8,129.4c0-0.5-0.5-0.8-0.9-0.7c0,0-0.8,0.1-1.1,0.8c-0.2,0.7,1.2,0.7,1.2,0.7S41.8,129.9,41.8,129.4
		L41.8,129.4z"/>
	<path class="st0" d="M40.8,132.1c0,0,0,0.6,0.8,0.6c0.7,0,0.7-0.5,0.7-0.5S41,131.6,40.8,132.1L40.8,132.1z"/>
	<path class="st0" d="M45.4,129.6c0.8,0,0.6-0.6,0.6-0.6s-0.3-0.3-0.8-0.3c-0.5,0-0.6,0-0.7,0.4C44.5,129.1,44.5,129.6,45.4,129.6
		L45.4,129.6z"/>
	<path class="st0" d="M37,115.1c0.5-0.1,0.1-1.7,0.1-1.7s-0.3-0.9-0.6-0.9c0,0-0.7,0-0.5,1.3C36.2,115,36.4,115.1,37,115.1L37,115.1
		z"/>
	<path class="st0" d="M38.9,114.3c0.3,0.5,0.6,0.5,1.1,0.3c0.4-0.2-0.7-2.1-0.7-2.1s-1.2-0.6-1.1,0C38,112.5,38.5,113.9,38.9,114.3
		L38.9,114.3z"/>
	<path class="st0" d="M23.9,113.9c-0.3,0-1.7,0.9-1.2,1.2c0,0,0.6,0.2,1.2-0.3C24.2,114.2,24.2,114,23.9,113.9L23.9,113.9z"/>
	<path class="st0" d="M25.9,115c0,0-1.5,1.5-0.9,1.8c0.6,0.3,1.1-0.5,1.3-1.2C26.6,115,26.2,114.6,25.9,115L25.9,115z"/>
	<path class="st0" d="M27.4,117.3c0.2,0.4,0.6,1.1,1.1-0.1c0.4-1.2,0.2-1.3-0.1-0.9C28.2,116.2,27.2,116.7,27.4,117.3L27.4,117.3z"
		/>
	<path class="st0" d="M31.1,117.7c0.2-1.4,0-1.3-0.3-0.9c0,0-0.9,0.7-0.7,1.2C30.3,118.3,30.9,119.2,31.1,117.7L31.1,117.7z"/>
	<path class="st0" d="M33.8,119.7c0.7,0.1,0.5-1.2,0.3-2c-0.2-0.8-0.4-0.8-0.6-0.8c0,0-0.4-0.1-0.4,0.9
		C33.1,118.7,33.1,119.6,33.8,119.7L33.8,119.7z"/>
	<path class="st0" d="M36.4,117.4c0,0-0.7,1.6,0.2,2.3c1.1,0.6,0.6-0.5,0.4-1.3C37,117.7,36.7,117,36.4,117.4L36.4,117.4z"/>
	<path class="st0" d="M39.4,117.1c0,0-0.5-0.1-0.3,0.7c0.2,0.8,0.5,1.7,1.4,1.5C41.3,119.2,40,117.5,39.4,117.1L39.4,117.1z"/>
	<path class="st0" d="M44,119.2c0.4-0.8-1.8-2.5-2.2-2.3c0,0-0.6,0.3,0,1.1C42.5,118.6,43.6,120.1,44,119.2L44,119.2z"/>
	<path class="st0" d="M46.9,118.7c0.5-0.3-0.8-1.7-0.8-1.7s-1.1-1.1-1.3-0.8c0,0-0.5,0.6,0.2,1.5C45.7,118.5,46.2,119.1,46.9,118.7
		L46.9,118.7z"/>
	<path class="st0" d="M31.6,121.2c0,0-1.5,2-0.5,2.4c0.9,0.3,0.9-1.5,0.9-2.2C31.9,120.6,31.6,121.2,31.6,121.2L31.6,121.2z"/>
	<path class="st0" d="M45.1,120.6c0,0,0.5,1.1,0.6,1.5c0.1,0.4,0.5,1.2,0.9,0.5c0.4-0.6,0.2-0.9-0.3-1.5
		C46,120.5,44.8,120.1,45.1,120.6L45.1,120.6z"/>
	<path class="st0" d="M15,38.7c0,0-1.5-0.3-2,1.3c-0.5,1.6-0.2,2.2,0.2,2.2c0.3-0.1,0.5-1.6,0.9-1.5s-0.4,1.5,0.1,1.7
		c0.5,0.1,0.7-1.6,1.2-1.4c0.4,0.1-0.4,1.6,0.2,1.7C16.2,42.8,17.1,39.2,15,38.7L15,38.7z"/>
	<path class="st0" d="M19.2,40.2c0,0-1.4-0.2-1.8,1.3c-0.4,1.5-0.1,2,0.2,2c0.3-0.1,0.4-1.5,0.7-1.4c0.4,0.1-0.3,1.4,0.1,1.5
		c0.5,0.1,0.6-1.4,1.1-1.3c0.4,0.1-0.3,1.4,0.2,1.6C20.5,43.8,21.1,40.6,19.2,40.2L19.2,40.2z"/>
	<path class="st0" d="M10.9,40.9c0.8,0.3,2.2-3.9-0.4-4.8c0,0-1.9-0.5-2.7,1.4c-0.8,1.9-0.4,2.6,0,2.6C8.1,40,8.6,38.2,9,38.4
		c0.5,0.2-0.7,1.8,0,2c0.7,0.2,1.2-1.8,1.7-1.6C11.3,39.1,10,40.6,10.9,40.9L10.9,40.9z"/>
	<path class="st0" d="M23.1,41.5c0,0-1.2-0.3-1.6,1.1c-0.4,1.3-0.1,1.8,0.1,1.7c0.3-0.1,0.4-1.3,0.7-1.2c0.3,0.1-0.3,1.2,0.1,1.4
		c0.4,0.1,0.6-1.3,0.9-1.1c0.3,0.1-0.3,1.3,0.2,1.4C24,44.9,24.8,42.1,23.1,41.5L23.1,41.5z"/>
	<path class="st0" d="M26.9,45.4c0.4,0.1,0.9-2.2-0.3-2.6c0,0-0.9-0.2-1.4,0.8c-0.3,1.1-0.1,1.5,0.1,1.4c0.2,0,0.3-1.1,0.6-0.9
		c0.3,0.1-0.3,0.9,0.1,1.1c0.3,0.1,0.5-0.9,0.7-0.9C27,44.4,26.4,45.3,26.9,45.4L26.9,45.4z"/>
	<path class="st0" d="M30.1,46.2c0.4,0.1,0.7-2.3-0.7-2.5c0,0-0.9-0.1-1.2,1.1c-0.2,1.1,0.1,1.5,0.3,1.4c0.2-0.1,0.2-1.1,0.4-1.1
		c0.3,0.1-0.2,1.1,0.2,1.1c0.4,0,0.3-1.1,0.6-0.9C30.1,45.1,29.7,46.2,30.1,46.2L30.1,46.2z"/>
	<path class="st0" d="M8.6,43.9c-0.2,1.4-1.4,9.4-0.6,9.5c0.7,0.1,0.6-3.5,0.8-5.4c0.2-1.8,0.5-4.6,0.5-4.6S8.8,42.6,8.6,43.9
		L8.6,43.9z"/>
	<path class="st0" d="M13.5,45.6c-0.2,1.1-0.9,7.4-0.4,7.5c0.5,0.1,0.4-2.7,0.6-4.2c0.1-1.5,0.4-3.7,0.4-3.7S13.7,44.6,13.5,45.6
		L13.5,45.6z"/>
	<path class="st0" d="M17.6,46.7c-0.1,0.8-0.6,5.9-0.1,5.9c0.5,0.1,0.3-2.2,0.4-3.4c0.1-1.2,0.2-2.9,0.2-2.9S17.7,45.8,17.6,46.7
		L17.6,46.7z"/>
	<path class="st0" d="M21.8,47.2c-0.1,0.6-0.7,4.5-0.2,4.5S22,50,22,49.2c0.1-0.8,0.3-2.2,0.3-2.2S21.9,46.6,21.8,47.2L21.8,47.2z"
		/>
	<path class="st0" d="M26.2,47.9c0,0-0.3-0.3-0.4,0.2c-0.1,0.5-0.5,3.5,0,3.5c0.5,0,0.3-1.4,0.3-2C26,49,26.2,47.9,26.2,47.9
		L26.2,47.9z"/>
	<path class="st0" d="M29.4,48.5c0,0-0.3-0.2-0.4,0.2c-0.1,0.4-0.4,3.1,0,3.1c0.4,0,0.2-1.2,0.3-1.7C29.3,49.3,29.4,48.5,29.4,48.5
		L29.4,48.5z"/>
	<path class="st0" d="M94.3,45.2v2.5c0,0,1.3-0.1,1.3-0.4c0-0.3,0.5,0.1,0.5,0.1S95.9,46.1,94.3,45.2L94.3,45.2z"/>
	<path class="st0" d="M96.2,52.3c-0.4,0-0.8,0.1-0.8-1.1s0.2-2.1-0.9-1.7v3.9c0,0,1.7,1.2,2.7,0c0,0,0.4-2.3-0.3-4
		c0,0-0.1-0.1-0.5,0.2C96.3,49.6,96.7,52.3,96.2,52.3L96.2,52.3z"/>
	<path class="st0" d="M94.4,55.1c0,0-0.2,2.8,0,2.8s1.1,0,1.1-1.8C95.5,54.4,94.8,54.6,94.4,55.1L94.4,55.1z"/>
	<path class="st0" d="M96.5,54.7c0,0-0.3,0-0.3,1.2s-0.3,2,0,2s0.6-1.1,0.9-2.1C97.4,54.8,97,54.5,96.5,54.7L96.5,54.7z"/>
	<path class="st0" d="M94.7,60.7c0.6,0,1.7,0,1.8-1.2c0.1-1.2-1.2-0.8-2.1,0.1C94.4,59.6,94,60.6,94.7,60.7L94.7,60.7z"/>
	<path class="st0" d="M94.4,62c0,0-0.1,3.3,0,3.2c0.2-0.1,1.2-2.2,1.5-2.9C96.2,61.4,94.6,61.5,94.4,62L94.4,62z"/>
	<path class="st0" d="M93.9,83.2c0.4,1.9,0.1,1.8-0.3,1.8c-0.4,0-0.9-2.7-1.6-0.9c-0.4,1.1-1.1,2.6,0.2,2.5c1.3-0.1,4.4,0.1,3.4-2.4
		C94.5,81.7,93.4,81.3,93.9,83.2L93.9,83.2z"/>
	<path class="st0" d="M96.7,91.2c0,0,0.4-0.4,0.2-1.1c-0.2-0.7-2.2-0.2-2.2-0.2l-4.6,0.2c0,0-0.5,1.1-0.4,1.2
		C89.7,91.3,96.3,91.4,96.7,91.2L96.7,91.2z"/>
	<path class="st0" d="M92.5,95.2c0-1.8-0.4-3.4-1.8-3.3c0,0-2-0.1-2,1.2c-0.1,1.3-0.3,3.2,0.3,3.2s0.1-2.3,0.6-2.4
		c0.5,0,0.5,0.9,0.5,1.6s0.8,0.9,0.8-0.1c-0.1-0.9-0.5-1.8,0-1.6c0.5,0.1,0.6,0.2,0.5,1.2C91.5,95.9,92.5,97,92.5,95.2L92.5,95.2z"
		/>
	<path class="st0" d="M94.4,93.7c0.4,0,0.5,0.8,0.5,1.5c0,0.6,0.8,0.8,0.7-0.1c-0.1-0.9-0.4-1.6,0-1.5c0.5,0.1,0.6,0.2,0.5,1.1
		c-0.1,0.8,0.9,1.8,0.8,0.2c0-1.7-0.3-3.2-1.7-3.1c0,0-1.8-0.1-1.9,1.2c-0.1,1.2-0.2,2.9,0.3,2.9C94.4,95.8,94,93.7,94.4,93.7
		L94.4,93.7z"/>
	<path class="st0" d="M47.3,114.6c0.7,0,0.3-3.5-0.4-2.8c0,0-0.4,0.3-0.4,1.2C46.3,113.7,46.5,114.5,47.3,114.6L47.3,114.6z"/>
	<path class="st0" d="M50.1,114.3c-0.2-1.4-0.8-2-0.8-1.5c0,0-0.2,0.8,0,1.7C49.5,115.5,50.3,115.6,50.1,114.3L50.1,114.3z"/>
	<path class="st0" d="M53.1,114.6c0.2-0.2-0.9-2.3-1.4-1.7c0,0-0.5,0.2,0.1,1.1C52.3,114.9,52.9,114.9,53.1,114.6L53.1,114.6z"/>
	<path class="st0" d="M56,118.7c-0.1-0.3-0.6-0.7-0.8-0.7c0,0-0.5,0.3-0.1,0.7C55.6,119.4,56,119.1,56,118.7L56,118.7z"/>
	<path class="st0" d="M58.4,119c0.6-0.3-0.6-1.5-1.5-1.5c0,0-0.4,0,0,0.7C57.5,118.8,57.8,119.3,58.4,119L58.4,119z"/>
	<path class="st0" d="M61.5,123.1c0.7,0.6,1.4,0.6,0.9-0.2c-0.4-0.8-0.8-1.4-1.2-1.1C61.3,121.8,60.7,122.3,61.5,123.1L61.5,123.1z"
		/>
	<path class="st0" d="M65.2,122.3c0.2-0.5-1.1-2.3-1.7-2.2c0,0-0.7,0.1-0.1,1.2C64.1,122.3,65,122.8,65.2,122.3L65.2,122.3z"/>
	<path class="st0" d="M67.2,121.7c0-0.5-0.9-2.5-1.1-1.9c0,0-0.3,1.3,0.2,2C66.8,122.4,67.2,122.2,67.2,121.7L67.2,121.7z"/>
	<path class="st0" d="M69.8,120.8c-0.1-0.7-0.7-2-1.1-1.7c0,0-0.6,0.3-0.1,1.2C69.2,121.3,69.9,121.7,69.8,120.8L69.8,120.8z"/>
	<path class="st0" d="M71.7,119.9c1.3,0-0.3-1.1-0.4-1.3c-0.1-0.2-0.7-0.3-0.6,0C70.6,118.6,70.3,119.9,71.7,119.9L71.7,119.9z"/>
	<path class="st0" d="M71.7,124.1c-0.1-0.4-0.4-0.7-0.7-0.7c0,0-0.8-0.1-0.3,0.6S71.7,124.5,71.7,124.1L71.7,124.1z"/>
	<path class="st0" d="M74,123.8c-0.4-1.3-0.8-1.8-1.3-1.6c0,0-0.3,0.5,0.2,1.4C73.5,124.3,74.4,125,74,123.8L74,123.8z"/>
	<path class="st0" d="M75.6,122.1c-0.2-0.9-1.8-3.4-1.8-2.5c0,0-0.2,0.7,0.4,1.6C74.7,122,75.7,123.1,75.6,122.1L75.6,122.1z"/>
	<path class="st0" d="M70.3,127.4c-0.2,0.4-0.5,1.6,0.2,1.3c0,0,1.3-0.7,1.1-1.1C71.3,127.2,70.5,126.9,70.3,127.4L70.3,127.4z"/>
	<path class="st0" d="M72.6,129.9c-0.6,0.2-1.3,0.7-0.9,1.2c0,0,0.3,0.7,1.2,0C73.7,130.4,73.3,129.7,72.6,129.9L72.6,129.9z"/>
	<path class="st0" d="M83,131.1c0,0-1.5,1.2-0.2,1.3c1.3,0.1,1.5-0.3,1.1-0.9C83.5,130.9,83.5,130.8,83,131.1L83,131.1z"/>
	<path class="st0" d="M91,132.2c-0.3,0-1.5,0.6-1.1,1.2c0,0,0.9,0.4,1.5-0.3C92,132.4,91.4,132.2,91,132.2L91,132.2z"/>
	<path class="st0" d="M94.2,129.8c-0.5,0.2-0.9,0.7,0,1.2c0,0,0.6,0.1,0.9-0.5C95.6,129.8,94.8,129.5,94.2,129.8L94.2,129.8z"/>
	<path class="st0" d="M88.9,129.3c0,0-1.3,1.6,0,1.7c1.3,0.1,0.6-1.1,0.6-1.1S89.1,128.9,88.9,129.3L88.9,129.3z"/>
	<path class="st0" d="M89,126.6c-0.6-0.5-0.9-0.2-1.3,0.1c0,0-0.8,1.5,0.2,1.4C88.9,128.1,89.7,127.2,89,126.6L89,126.6z"/>
	<path class="st0" d="M93.7,126.3c-0.2-0.5-0.3-0.7-0.7-0.5c0,0-0.9,0.7-0.3,0.9C93.1,127.1,93.9,126.9,93.7,126.3L93.7,126.3z"/>
	<path class="st0" d="M79.5,123.1c0,0-0.3,0.6,0.4,0.7c0.7,0.1,0.7-0.4,0.7-0.6C80.6,122.8,79.9,122.5,79.5,123.1L79.5,123.1z"/>
	<path class="st0" d="M80.6,118.3c0,0-0.2,0.9,0.5,1.2c0.7,0.2,0.5-0.5,0.4-0.7C81.6,118.5,80.6,117.8,80.6,118.3L80.6,118.3z"/>
	<path class="st0" d="M84.6,120.2c0,0-0.7,0.7-0.2,0.9C84.8,121.3,85.8,120.4,84.6,120.2L84.6,120.2z"/>
	<path class="st0" d="M87.6,118.2c0.6,0.1,1.1-0.7,0.2-0.8C87.8,117.4,86.9,118.1,87.6,118.2L87.6,118.2z"/>
	<path class="st0" d="M84,118c0,0-0.9,0.1-0.4,0.5c0.5,0.5,0.7,0.5,0.9-0.1C84.6,117.8,84.5,117.8,84,118L84,118z"/>
	<path class="st0" d="M85.6,114.9c0,0-0.2,0.6,0.3,0.9c0.5,0.3,0.5,0,0.5-0.3C86.4,115.1,85.6,114.3,85.6,114.9L85.6,114.9z"/>
	<path class="st0" d="M84.5,113.4c0,0,0.4,0.2,0.8-0.1C85.7,113.1,84.4,112.7,84.5,113.4L84.5,113.4z"/>
	<path class="st0" d="M91.9,109.7c0.4-0.3-0.5-0.7-0.7-0.2C91.1,109.5,91.5,110.1,91.9,109.7L91.9,109.7z"/>
	<path class="st0" d="M115.6,130c0.9-0.3,1.6-1.9-0.1-1.5c0,0-0.7,0.7-0.7,1.1C114.7,129.7,114.6,130.2,115.6,130L115.6,130z"/>
	<path class="st0" d="M109.4,127.4c0,0-0.3,0.9,0.1,0.9c0.4-0.1,1.2-0.3,0.7-0.7C109.8,127.1,109.6,127.1,109.4,127.4L109.4,127.4z"
		/>
	<path class="st0" d="M106.5,126.1c0,0-0.8,0.3-0.8,0.6c0,0.3,0,0.9,0.7,0.4C107.2,126.6,107.7,125.6,106.5,126.1L106.5,126.1z"/>
	<path class="st0" d="M103.3,125c0,0-1.1,0.3-0.7,0.6c0.3,0.4,1.1,1.1,1.3,0.3C104.1,125.3,103.9,124.6,103.3,125L103.3,125z"/>
	<path class="st0" d="M110.3,123.6c0,0-0.7,0.3-0.6,0.6c0.1,0.3,0.6,0.6,0.9,0.2C111,124.1,111.1,123.3,110.3,123.6L110.3,123.6z"/>
	<path class="st0" d="M112.8,126.8c0.6-0.2,1.5-1.7,0.2-1.5c0,0-0.5,0.2-0.7,0.6C112.1,126.5,112.2,127.1,112.8,126.8L112.8,126.8z"
		/>
	<path class="st0" d="M98.1,114.1c0,0,0,1.1,0.7,0.8c0.6-0.2,0.4-0.8,0.4-0.8S97.9,113.4,98.1,114.1L98.1,114.1z"/>
	<path class="st0" d="M98,118.7c-0.6-0.3-0.6-0.4-0.8-0.2c0,0-0.5,0.9,0.1,1.1C97.9,119.7,98.6,119.1,98,118.7L98,118.7z"/>
	<path class="st0" d="M100.8,115.8c0.1-0.4-2.1,0.5-1.3,0.9c0,0,0.7,0.3,1.1,0.2C101,116.7,100.7,116.2,100.8,115.8L100.8,115.8z"/>
	<path class="st0" d="M102.9,111.6c0.6,0,0.5-0.6,0.3-0.9c-0.2-0.3-1.2-0.3-1.2,0.3C102.2,111,102.3,111.6,102.9,111.6L102.9,111.6z
		"/>
	<path class="st0" d="M103.1,113.4c1.3,0.7,0.8-1.3,0.2-0.9C103.5,112.4,102.6,113.1,103.1,113.4L103.1,113.4z"/>
	<path class="st0" d="M105.1,111.9c1.4,0,0.6-1.4,0.1-1.2c0,0-0.6,0.5-0.6,0.6C104.5,111.5,104.1,111.9,105.1,111.9L105.1,111.9z"/>
	<path class="st0" d="M103.6,115.6c0,0.3,0.3,0.4,0.8,0.3c0.5-0.2,0.5-0.9-0.1-0.7C104.3,115.2,103.7,115.4,103.6,115.6L103.6,115.6
		z"/>
	<path class="st0" d="M106.6,114.7c0.3-0.1,0.2-0.6,0.2-1.2c0-0.4-0.2-0.6-0.6-0.2c0,0-0.3,0.1-0.3,0.5
		C106,114.3,106.4,114.9,106.6,114.7L106.6,114.7z"/>
	<path class="st0" d="M118.1,107.9c0.4-0.4,0.8-1.2-0.1-1.3c0,0-0.6,0-0.5,0.6C117.4,107.8,117.7,108.3,118.1,107.9L118.1,107.9z"/>
	<path class="st0" d="M119.4,108.4c0,0,0.6,0.3,1.1,0.2c0.4-0.1,0.2-0.7-0.1-0.8C120.1,107.7,118.9,108.3,119.4,108.4L119.4,108.4z"
		/>
	<path class="st0" d="M121.8,105.9c1.1,0.2,1.2-1.1,0.7-0.9C122.5,105,120.7,105.7,121.8,105.9L121.8,105.9z"/>
	<path class="st0" d="M119.7,105.7c0.5,0,0.8-0.2,0.5-0.4s-0.8-0.7-0.8-0.5C119.4,104.8,119.1,105.7,119.7,105.7L119.7,105.7z"/>
	<path class="st0" d="M116.1,41c-0.1-1.1-0.3-1.3-0.4-1.2c0,0-0.2,2.9,0,2.9C116.1,42.9,116.2,42.1,116.1,41L116.1,41z"/>
	<path class="st0" d="M101.8,47.6c-0.6,0.1-0.7-0.8-0.8-1.4c0-0.6-0.5-0.9-0.8-0.2c0,0,0.1,2.5,1.3,2.4c1.5-0.1,1.9-0.8,1.3-2.8
		c0,0-0.3-0.5-0.7-0.1C101.5,45.7,102.4,47.5,101.8,47.6L101.8,47.6z"/>
	<path class="st0" d="M103.7,44.9c0,0-0.2,2.7,0.9,2.7c1.5,0.1,2-0.7,1.7-2.8c0,0-0.2-0.6-0.7-0.3c-0.5,0.3,0.1,2.3-0.4,2.3
		c-0.6,0-0.6-0.9-0.6-1.7C104.5,44.6,104.1,44.2,103.7,44.9L103.7,44.9z"/>
	<path class="st0" d="M107.1,44.1c0,0-0.2,2.8,0.8,2.8c1.4,0,1.8-0.7,1.6-3.1c0,0-0.2-0.6-0.7-0.3c-0.5,0.4,0.1,2.4-0.4,2.4
		s-0.6-1.1-0.5-1.7C108,43.7,107.6,43.3,107.1,44.1L107.1,44.1z"/>
	<path class="st0" d="M110.5,42.6V45c0,0-0.2,1.6,1.6,1.7c1.7,0,1.3-2.2,1.3-3.2s-0.1-2.3-0.5-2.3c-0.4,0.1-0.5,0.6-0.5,1.6
		c0,1.1,0.2,2.2-0.3,2.2c-0.5,0-0.5-0.7-0.5-1.8C111.3,42.2,110.6,41.4,110.5,42.6L110.5,42.6z"/>
	<path class="st0" d="M115.1,40.2c0,0-1.1-0.9-1.1,0.4s-0.4,5.4,1.9,5.5c2.3,0.1,1.9-2.8,1.9-4.7c0-1.9,0.3-3.8-0.4-3.3
		c-0.7,0.5-0.8,1.1-0.9,2.4c-0.1,1.4,0.3,3.5-0.4,3.6c-0.6,0.1-1.2-0.1-1.1-2.1C115.3,40.5,115.1,40.2,115.1,40.2L115.1,40.2z"/>
	<path class="st0" d="M120.2,41.5c-0.1-2.2,0-3.8-0.4-3.8c0,0-0.7-0.1-0.8,1.1c0,1.1-0.4,5.5,0.9,6.1c1.5,0.6,3.5,0.3,3.5-1.4
		c0-1.6,0-5.2,0-6.1s-0.9-1.4-1.2-0.1c-0.2,1.4,0.6,6.5-0.6,6.4C120.5,43.7,120.3,43.7,120.2,41.5L120.2,41.5z"/>
	<path class="st0" d="M121.1,38.2c0,0-0.4,3.9,0.1,4.1c0.5,0.2,0.3-2.6,0.3-3.5C121.5,37.8,121.2,37.4,121.1,38.2L121.1,38.2z"/>
	<path class="st0" d="M115.4,99c0.9,0.1,3.9-6.6,4.6-10.8c0.7-4.3,1.1-5.3,1.8-7.3c0.8-2,2-9.8,2-13.8s0.2-7.6,0-8.2
		c-0.2-0.6-0.4-0.8-1.2-0.3c-0.6,0.5-1.5,0.2-1.4,2c0.1,1.8,0.2,12.8-0.4,14.6c-0.6,1.8-1.3,4.5-1.7,6.3c-0.5,1.8-1.2,3.9-0.7,0.1
		s1.2-3.9,1.3-6.2c0.1-2.3,0.6-5,0.5-8.3c-0.1-3.3,0.2-7.5,0.2-7.5s-1.7-2.2-1.7-0.2c-0.1,2,0.1,12.4-0.1,13.8
		c-0.2,1.4-0.6,3.5-0.4,4.9c0.2,1.4-0.5,1.8-0.6,4.1c-0.1,2.3-0.7,10.9-1.8,13.3C114.6,97.9,114.5,98.9,115.4,99L115.4,99z"/>
	<path class="st0" d="M113.9,88.6c0.7-0.4,3.6-7.2,3.8-17.5c0.2-10.3,0.5-11.4,0.1-12.2c-0.4-0.7-1.4-1.1-1.3,1.2
		c0.2,2.1-0.4,16.9-1.2,16.9c-0.6,0.5,0.5-12.6,0.2-17.7l-0.1-0.1c0,0-0.8-2.4-0.9-0.5c-0.1,1.8-0.1,9.9-0.3,10.5
		c-0.2,0.6-1.2,4.1-0.8,6.5c0.3,2.4,0.5,8.7,0.2,10.3C113.3,87.6,113.2,89,113.9,88.6L113.9,88.6z"/>
	<path class="st0" d="M113.2,65.4c0.2-2.2,0.7-6.5,0.5-7.6c0,0-1.3-0.4-1.3,0.9c-0.1,0.7-0.1,4.2-0.2,5.4c-0.2,1.2-0.2,6.2-0.8,6.2
		c-0.7-0.1-0.3-2.5-0.1-4.7c0.2-2.2,1.1-4.4,0.4-7.5c0,0-1.1-1.2-1.1-0.1c-0.1,1.1,0.1,3.7-0.2,4.1c-0.3,0.4-0.6,1.9-0.5,3.5
		c0.1,1.6,0.3,4.2-0.3,5.3s-0.4,2.3-0.6,3.6c-0.2,1.4-0.5,4.3-1.7,6.2c-1.2,1.9,1.4,2.4,3.9-4.7C113.6,68.9,113.1,67.6,113.2,65.4
		L113.2,65.4z"/>
	<path class="st0" d="M106.6,58.1c0,1.2-0.1,8.3-0.6,9.6c-0.5,1.3-0.7,3.8-1.1,4.4c-0.3,0.6-1.6,3.9-2.2,4.8
		c-0.6,1.1-0.5,2.2,0.6,1.4c1.2-0.8,4.5-5.3,5-9.2c0.5-3.9,1.2-6.4,1.3-7.5c0.2-1.1,0.5-3.9,0.1-4.1c-0.3-0.2-1.1-0.4-1.1,0.6
		s-0.3,4.7-0.8,6.5c-0.5,1.8-0.6,2.4-0.6,0.2c-0.1-2.2,0.4-6.6,0.1-7.7C107.3,57.2,106.6,57,106.6,58.1L106.6,58.1z"/>
	<path class="st0" d="M102.9,57c0,0-0.1,1.1-0.1,4.1c0,3.9-2,7.8-3.2,10.3c-1.2,2.4,0.4,1.8,1.3,1.1c0.8-0.7,2.5-3.8,3.4-5.5
		s1.6-9.8,1.6-9.8c-0.1-0.3-0.8-0.5-1.2-0.1c-0.3,0.4-0.6,0.6-0.8,0.1C103.8,56.7,102.9,57,102.9,57L102.9,57z"/>
	<path class="st0" d="M101.5,64.6c0.5-1.4,0.6-7.3,0.6-7.3c0-0.9-0.4-1.6-0.5,0.1c-0.1,1.7-0.6,0.9-0.9-0.5s-0.8,2.8-0.6,4.2
		c0.2,1.5-1.3,5.4-1.8,7.9C97.7,71.4,100.9,65.8,101.5,64.6L101.5,64.6z"/>
	<path class="st0" d="M102.1,50.3c-0.2,1.9,0.1,2.6-0.5,2.4c-0.6-0.2,0-3.2-0.5-3.2s-0.4,1.2-0.5,2c-0.1,0.8-0.2,3.1,0.9,3.1
		c2,0,1.6-3.8,1.6-4.4C103,49.4,102.3,48.4,102.1,50.3L102.1,50.3z"/>
	<path class="st0" d="M106.1,49c-0.5,0-0.7,0.1-0.6,1.3c0,1.1,0.2,2.2-0.3,2c-0.5-0.1-0.3-1.4-0.3-2.3c0-0.9-0.3-0.9-0.3-0.9
		s-0.5-0.1-0.5,0.9c0,1.1-0.2,4.5,0.8,4.6c1.1,0.1,1.7-0.8,1.8-3.2C106.6,49,106.6,49,106.1,49L106.1,49z"/>
	<path class="st0" d="M108.4,55.3c1.9,0.2,1.5-3.2,1.6-4c0-0.8,0.2-2.7-0.2-2.7c-0.4,0-0.4,0.5-0.4,1.4c0,0.9-0.1,3.1-0.6,3.1
		s-0.6-1.1-0.5-2.6c0.1-1.6,0.1-1.8-0.1-1.8c0,0-0.6,0-0.6,1.3C107.2,51.1,106.5,55.1,108.4,55.3L108.4,55.3z"/>
	<path class="st0" d="M113.7,48.3c-0.5-0.1-0.9,0-0.9,1.1c0,1.1,0.1,4.4-0.5,4.4s-0.8-0.9-0.8-2.6s0.4-2.7,0.1-2.8
		c0,0-0.9-0.5-0.9,1.2s-0.3,6.2,1.1,6.4c1.4,0.2,2.2-1.5,2.1-3.6C113.6,50.3,114.2,48.4,113.7,48.3L113.7,48.3z"/>
	<path class="st0" d="M115.4,47.8c0,0-0.7-0.1-0.8,1.3c-0.1,1.4,0.1,3.9,0.1,5.2c0,1.3,0.1,2.3,1.4,2.4c1.2,0.1,2-1.8,2-3.8
		c0-2,0.5-5.3-0.3-5.4c-0.7-0.1-0.6,0.6-0.5,1.4c0,0.7,0,5.8-0.9,5.7c-0.9-0.1-1.1-2.3-0.7-4.5C115.9,47.4,115.4,47.8,115.4,47.8
		L115.4,47.8z"/>
	<path class="st0" d="M116.4,48.7c0,0-0.3-0.2-0.3,1.1c0,1.4-0.3,3.5,0.2,3.6c0.5,0,0.1-1.2,0.3-2.3
		C116.7,49.7,116.7,48.7,116.4,48.7L116.4,48.7z"/>
	<path class="st0" d="M123.7,46.9c-0.6-0.1-0.9-0.2-0.9,1.3c0,1.5-0.1,5.8-0.1,5.8s0.1,1.7-1.1,1.7c-1.2,0-1.2-0.7-1.2-2.3
		c0-1.6,0.4-5.8-0.6-5.9c0,0-0.7,0-0.8,1.4c0,1.5,0,5.6,0,6.3c0,0.7,0.3,2.4,2.3,2.7c2,0.3,2.5-2.5,2.6-5.3
		C123.9,49.7,124.4,47,123.7,46.9L123.7,46.9z"/>
	<path class="st0" d="M121.5,48.4c0,0-0.5-0.2-0.5,1.1c0,1.3-0.3,4.9,0.2,4.9c0.4,0,0.5-0.2,0.5-1.3C121.5,50,122,48.5,121.5,48.4
		L121.5,48.4z"/>
	<path class="st0" d="M99.6,13.2l0.6-4.5c0.1-0.6,0-1.2-0.8-1.3l-1.1-0.1L97.4,14l1.1,0.1C99.2,14.3,99.6,14,99.6,13.2L99.6,13.2z
		 M98.1,13.7l0.3-2.4l0.6,0.1l0.1-0.6l-0.6-0.1l0.3-2.5h0.3c0.4,0.1,0.5,0.2,0.4,0.6l-0.6,4.6c-0.1,0.4-0.2,0.5-0.6,0.4L98.1,13.7
		L98.1,13.7z"/>
	<path class="st0" d="M46.6,46.5c0,0-0.9,0.1-0.9-0.8c0-0.2,0-0.5,0-0.8h1.8c0.7,0,1.4-0.5,1.4-1.3c0-0.6-0.6-1.3-1.4-1.3h-1.8h-0.6
		h-0.8v0.6c0,0,0.5-0.1,0.5,0.5c0,0.6,0,2.5,0,2.5s-0.1,0.4-0.5,0.4v0.4h2.5L46.6,46.5L46.6,46.5z M47,42.8c0.3,0,0.6,0.3,0.6,0.6
		s-0.3,0.6-0.6,0.6h-1.2c0-0.5,0-0.9,0-1.3L47,42.8L47,42.8z"/>
	<path class="st0" d="M39.7,74.5c0.6,0,2.5,0,2.5,0s0.4,0.1,0.4,0.5h0.4v-2.5h-0.4c0,0,0.1,0.9-0.8,0.9c-0.2,0-0.5,0-0.8,0v-1.8
		c0-0.7-0.5-1.4-1.3-1.4c-0.6,0-1.3,0.6-1.3,1.4v1.8v0.7V75h0.7C39.2,75,39.1,74.5,39.7,74.5L39.7,74.5z M39.1,72.2
		c0-0.3,0.3-0.6,0.6-0.6s0.6,0.3,0.6,0.6v1.2c-0.5,0-0.9,0-1.3,0L39.1,72.2L39.1,72.2z"/>
	<path class="st0" d="M83.7,94.7c0,0-0.2,0.5-0.7,0.1c-0.5-0.4-2.1-1.5-2.1-1.5s-0.3-0.3,0-0.7l-0.4-0.3l-1.7,2.2l0,0l-0.6,0.8
		c-0.5,0.6-0.4,1.6,0.2,2c0.4,0.3,0.9,0.3,1.4,0c0,0.3,0.2,0.6,0.4,0.8c0.5,0.4,1.4,0.2,1.8-0.4l1.1-1.4l0.1-0.2l0.3-0.4l0.5-0.7
		L83.7,94.7L83.7,94.7z M79.4,96.1c-0.3-0.2-0.3-0.6-0.1-0.9l0.7-0.9c0.1,0,0.3,0,0.5,0.2c0.2,0.1,0.4,0.3,0.6,0.5L80.3,96
		C80.1,96.3,79.7,96.3,79.4,96.1L79.4,96.1z M82.1,97.1c-0.2,0.3-0.6,0.3-0.8,0.1c-0.3-0.2-0.3-0.6-0.1-0.8l0.6-0.9
		c0.4,0.3,0.7,0.5,1.1,0.7L82.1,97.1L82.1,97.1z"/>
	<path class="st0" d="M53,42.4c-1.5,0-2.6,1.1-2.6,2.4c0,1.4,1.2,2.4,2.6,2.4s2.6-1.1,2.6-2.4C55.5,43.4,54.4,42.4,53,42.4L53,42.4z
		 M53,46.4c-0.4,0-1.1-0.8-1.1-1.7S52.5,43,53,43c0.4,0,1.1,0.8,1.1,1.7S53.4,46.4,53,46.4L53,46.4z"/>
	<path class="st0" d="M59.9,46.5c0,0-0.9,0.1-0.9-0.8c0-0.2,0-0.5,0-0.8h0.7l1.4,2.1c0,0,0.8,0.2,1.5-0.5l-0.2-0.3
		c0,0-0.5,0.4-0.8-0.1c-0.2-0.3-0.5-0.9-0.7-1.2c0.7,0,1.3-0.5,1.3-1.3c0-0.6-0.6-1.3-1.4-1.3h-1.8h-0.6h-0.8v0.6
		c0,0,0.5-0.1,0.5,0.5c0,0.6,0,2.5,0,2.5s-0.1,0.4-0.5,0.4v0.4h2.5L59.9,46.5L59.9,46.5z M60.2,42.8c0.3,0,0.6,0.3,0.6,0.6
		s-0.3,0.6-0.6,0.6h-1.2c0-0.5,0-0.9,0-1.3L60.2,42.8L60.2,42.8z"/>
	<path class="st0" d="M39.6,65.5c0.6,0,2.5,0,2.5,0s0.4,0.1,0.4,0.5H43v-2.4h-0.4c0,0,0.1,0.9-0.8,0.9c-0.2,0-0.5,0-0.8,0v-0.7
		l2.1-1.4c0,0,0.2-0.8-0.5-1.5l-0.3,0.2c0,0,0.4,0.5-0.1,0.8c-0.3,0.2-0.9,0.5-1.2,0.7c0-0.7-0.5-1.3-1.3-1.3
		c-0.6,0-1.3,0.6-1.3,1.4v1.8v0.6v0.8h0.8C39.2,66,39,65.5,39.6,65.5L39.6,65.5z M39,63.3c0-0.3,0.3-0.6,0.6-0.6s0.6,0.3,0.6,0.6
		v1.2c-0.5,0-0.9,0-1.3,0L39,63.3L39,63.3z"/>
	<path class="st0" d="M63.7,105.3c0,0,0.9,0.2,0.6,1.1c-0.1,0.2-0.1,0.5-0.2,0.8l-0.7-0.2l-0.7-2.4c0,0-0.7-0.4-1.6,0.1l0.1,0.3
		c0,0,0.6-0.2,0.7,0.3c0.1,0.4,0.3,1.1,0.3,1.4c-0.7-0.2-1.4,0.2-1.6,0.8s0.2,1.4,0.9,1.6l2.3,0.6l0.8,0.2l0.2-0.6
		c0,0-0.5,0-0.3-0.6s0.7-2.4,0.7-2.4s0.2-0.4,0.6-0.3l0.1-0.4l-2.4-0.7L63.7,105.3L63.7,105.3z M61.9,108c0.1-0.3,0.4-0.5,0.7-0.4
		l1.2,0.3c-0.1,0.4-0.2,0.9-0.3,1.3l-1.2-0.3C62,108.6,61.8,108.3,61.9,108L61.9,108z"/>
	<path class="st0" d="M90.7,47.9c0,0,0.1,0.5-0.5,0.5c-0.6,0-2.5,0-2.5,0s-0.4-0.1-0.4-0.5h-0.4v2.5h0.4c0,0-0.1-0.9,0.8-0.9
		c0.2,0,0.5,0,0.8,0v0.7l-2.1,1.4c0,0-0.2,0.8,0.5,1.5l0.3-0.2c0,0-0.4-0.5,0.1-0.8c0.3-0.2,0.9-0.5,1.2-0.7c0,0.7,0.5,1.3,1.3,1.3
		c0.6,0,1.3-0.6,1.3-1.4v-1.8v-0.6v-0.8L90.7,47.9L90.7,47.9z M90.9,50.7c0,0.3-0.3,0.6-0.6,0.6c-0.3,0-0.6-0.3-0.6-0.6v-1.2
		c0.5,0,0.9,0,1.3,0V50.7L90.9,50.7z"/>
	<polygon class="st0" points="72.3,46.6 71.7,46.6 73.4,44.1 75.9,46.9 78,44.6 79.4,46.6 78.5,46.6 78.5,47 81.7,47 81.7,46.6 
		81.3,46.6 79.2,43.4 79.2,43.4 79.2,42.5 78.1,42.5 78.1,43.1 76.4,45 74.3,42.5 72.1,42.5 72.1,43.2 72.6,43.2 72.6,43.2 
		70.4,46.6 70,46.6 70,47 72.3,47 	"/>
	<polygon class="st0" points="85.7,46.3 85.4,46.3 85.4,43.2 85.7,43.2 85.7,42.5 83.6,42.5 83.6,43.2 83.9,43.2 83.9,46.3 
		83.6,46.3 83.6,47 85.7,47 	"/>
	<polygon class="st0" points="39.3,59.5 42.3,59.5 42.3,59.9 43.1,59.9 43.1,57.8 42.3,57.8 42.3,58.1 39.3,58.1 39.3,57.8 
		38.5,57.8 38.5,59.9 39.3,59.9 	"/>
	<polygon class="st0" points="39.3,51 43.2,48.5 39.3,45.3 39.3,44.6 38.7,44.6 38.7,46.8 39.3,46.8 39.3,46.2 41.5,47.8 39.3,49.2 
		39.3,49.1 38.7,49.1 38.7,51.6 39.3,51.6 	"/>
	<polygon class="st0" points="39,56.8 39.9,56.8 39.9,56.4 39.5,56.4 39.5,55.1 42.3,55.1 42.3,55.9 43.1,55.9 43.1,52.9 42.3,52.9 
		42.3,53.6 39.5,53.6 39.5,52.4 39.9,52.4 39.9,52 39.5,52 39.5,52 38.5,52 38.5,56.8 	"/>
	<polygon class="st0" points="39.3,69.4 42.3,69.4 42.3,69.7 43.1,69.7 43.1,67.6 42.3,67.6 42.3,67.9 39.3,67.9 39.3,67.6 
		38.5,67.6 38.5,69.7 39.3,69.7 	"/>
	<path class="st0" d="M79,100.2c0,0-0.2-0.1-0.3-0.2l-1.9-2c-0.1-0.1-0.1-0.1-0.1-0.2c0,0,0.1-0.2,0.3-0.4L76.6,97l-3.4,3.3l0.5,1.2
		l0.4-0.4c-0.1-0.2,0-0.6,0-0.7c0-0.1,0-0.2,0.1-0.2l1.4-1.4l2,2.1c0.1,0.1,0.2,0.2,0.2,0.3c0,0-0.5,0.5-0.7,0.7l0.4,0.4l2.1-2
		l-0.4-0.4C79.3,100,79.2,100.1,79,100.2L79,100.2z"/>
	<path class="st0" d="M47.1,94.8l2.3-1.5c0.1-0.1,0.1-0.1,0.2,0c0,0,0.1,0.2,0.3,0.4l0.5-0.3l-2.5-4l-1.3,0.3l0.3,0.5
		c0.2-0.1,0.6,0.1,0.6,0.1c0.1,0,0.1,0.1,0.2,0.2l1.1,1.6l-2.4,1.6c-0.1,0.1-0.3,0.2-0.3,0.2s-0.4-0.6-0.6-0.8L45,93.4l1.6,2.5
		l0.5-0.3c-0.1-0.2-0.2-0.4-0.2-0.4C46.9,95,47,94.8,47.1,94.8L47.1,94.8z"/>
	<path class="st0" d="M49.6,94.5l0.4,0.5c0.2-0.1,0.3-0.1,0.4-0.2c0.1,0,0.2-0.1,0.2-0.1c0.1,0,0.3,0.3,0.4,0.3l0.8,1.1l-1.2,0.9
		l-1.1-1.4L49,96.2l1.2,1.4l-0.9,0.7l-0.9-1.2v-0.1V97c0,0,0-0.1,0.1-0.1l0.2-0.3L48.1,96l-0.7,1.1l2.5,3.2l0.4-0.3
		c-0.1-0.1-0.2-0.2-0.2-0.2C50,99.6,50,99.6,50,99.5c0,0,0-0.1,0.1-0.1l2.3-1.9c0.1-0.1,0.1-0.1,0.2-0.1c0,0,0.1,0.1,0.3,0.3
		l0.4-0.3L50.7,94L49.6,94.5L49.6,94.5z"/>
	<path class="st0" d="M42.2,85.5l2.8-0.9c0.1,0,0.2,0,0.2,0s0.1,0.2,0.2,0.4l0.5-0.2l-1.4-4l-1.3,0.1l0.2,0.6c0.2,0,0.4,0,0.4,0
		c0.1,0,0.2,0,0.2,0c0.1,0,0.2,0.3,0.2,0.4l0.4,1.3l-1.5,0.5L42.9,82l-0.6,0.2l0.5,1.7l-1.2,0.4l-0.5-1.5v-0.1c0,0,0-0.1,0.1-0.1
		c0,0,0.1,0,0.1-0.1l0.3-0.2l-0.2-0.6l-1.1,0.6l1.3,3.8l0.5-0.2C42,85.7,42,85.7,42,85.6c0-0.1,0-0.1,0-0.2
		C42,85.6,42.1,85.5,42.2,85.5L42.2,85.5z"/>
	<path class="st0" d="M40.8,80.7c0.5,0,0.9-0.5,1.2-1.5c0.1-0.3,0.1-0.6,0.2-0.9c0.1-0.4,0.2-0.7,0.3-0.8c0.1-0.1,0.3-0.2,0.4-0.2
		c0.1,0,0.2,0.1,0.3,0.2c0.1,0.1,0.1,0.3,0.1,0.5c0,0.3,0,0.8-0.1,1.1c-0.1,0.2-0.5,0.4-0.9,0.6l0.3,0.8c0.4-0.2,0.9-0.4,1.3-0.5
		c0.1-0.7,0.2-1.1,0.1-1.8c-0.1-0.9-0.3-1.4-0.6-1.9c-0.3-0.4-0.6-0.6-1.1-0.6c-0.3,0-0.6,0.2-0.8,0.5c-0.2,0.2-0.3,0.7-0.4,1.3
		c0,0.1-0.1,0.3-0.2,0.9c-0.1,0.4-0.2,0.7-0.2,0.8c0,0.1-0.1,0.1-0.2,0.1c-0.2,0-0.4-0.2-0.4-0.6c0-0.3-0.1-1.5,0-1.6
		c0.1-0.1,0.4-0.3,0.8-0.5l-0.2-0.7c-0.5,0.2-0.9,0.3-1.3,0.4c-0.1,0.7-0.2,1.1-0.1,1.7c0.1,0.8,0.2,1.5,0.5,1.9
		C40,80.5,40.3,80.8,40.8,80.7L40.8,80.7z"/>
	<path class="st0" d="M90.1,61.8C90.3,61.9,90.2,61.9,90.1,61.8c0.2,0.1,0.3,0.2,0.3,0.2s0,0.1,0,0.3V64l-3.3-2.8
		c0,0-0.4-0.5-0.4,0.4c0,0.9,0,4.4,0,4.4l1.3,0.3v-0.8c-0.3-0.1-0.2-0.2-0.3-0.3c-0.1-0.1-0.1-0.2-0.1-0.4v-1.4l3.3,2.8
		c0,0,0.4,0.3,0.4-0.4c0-0.7,0-4.5,0-4.5L90,61v0.8H90.1z"/>
	<path class="st0" d="M87.6,53.9c0,0,0-0.2,0-0.4h-0.7v1.9h0.7c0-0.2,0-0.3,0-0.4l0,0l0.7,0.4v1.9c-0.6,0.3-0.7,0.4-0.7,0.4
		s0-0.7,0-0.8h-0.7v3.1h0.7c0-0.2,0-0.4,0-0.4c0-0.1,0.1-0.1,0.2-0.2l3.6-2.1v-1.3L87.7,54C87.7,53.9,87.7,53.9,87.6,53.9L87.6,53.9
		z M89,55.8l0.9,0.5L89,57V55.8L89,55.8z"/>
	<path class="st0" d="M87.6,67.5c0,0,0-0.2,0-0.4h-0.7V69h0.7c0-0.2,0-0.3,0-0.4l0,0l0.7,0.4v2c-0.6,0.3-0.7,0.4-0.7,0.4
		s0-0.7,0-0.8h-0.7v3.1h0.7c0-0.2,0-0.4,0-0.4c0-0.1,0.1-0.1,0.2-0.2l3.6-2.1v-1.3l-3.7-1.9C87.6,67.6,87.6,67.6,87.6,67.5
		L87.6,67.5z M88.9,69.5l0.9,0.5l-0.9,0.6V69.5L88.9,69.5z"/>
	<path class="st0" d="M72.9,101.8l-0.4-0.6l-1.6,0.9l0.4,0.6c0.2-0.1,0.3-0.2,0.3-0.2l0,0l0.1,0.8l-1.7,1.1
		c-0.6-0.3-0.7-0.4-0.7-0.4s0.6-0.4,0.7-0.4l-0.4-0.6l-2.5,1.6l0.4,0.6c0.2-0.1,0.3-0.2,0.4-0.2s0.1,0,0.2,0.1l3.7,1.9l1.2-0.7
		l-0.3-4.1c0-0.1,0-0.1,0-0.2C72.6,101.9,72.7,101.9,72.9,101.8L72.9,101.8z M70.7,104.8l0.9-0.5l0.1,1.2L70.7,104.8L70.7,104.8z"/>
	<path class="st0" d="M59.5,102.5l-0.4,0.6c0.2,0.1,0.3,0.2,0.3,0.2l0,0l-0.7,0.4l-1.6-1.2c0.1-0.7,0.1-0.8,0.1-0.8s0.6,0.4,0.6,0.5
		l0.4-0.6l-2.4-1.8l-0.5,0.5c0.2,0.1,0.3,0.2,0.3,0.3c0,0,0,0.1,0,0.3l-0.3,4.1l1.1,0.7l3.7-1.8c0.1,0,0.1,0,0.2,0
		c0,0,0.2,0.1,0.3,0.2l0.4-0.6L59.5,102.5L59.5,102.5z M56.7,104.5l0.1-1.2l0.8,0.6L56.7,104.5L56.7,104.5z"/>
	<path class="st0" d="M84.4,86c0,0,0.1-0.2,0.1-0.4l-0.7-0.3L83,87l0.7,0.3c0.1-0.2,0.1-0.3,0.1-0.3l0,0l0.5,0.6l-0.8,1.8
		c-0.7,0.1-0.8,0.1-0.8,0.1l0.3-0.7l-0.7-0.3L81,91.2l0.7,0.3c0.1-0.2,0.2-0.3,0.2-0.4c0,0,0.1-0.1,0.2-0.1l4.1-0.5l0.5-1.2L84.3,86
		C84.4,86.1,84.4,86.1,84.4,86L84.4,86z M85.6,89.3l-1.2,0.1l0.4-0.9L85.6,89.3L85.6,89.3z"/>
	<path class="st0" d="M89.7,79.6C89.7,79.7,89.6,79.7,89.7,79.6c-0.1,0.1-0.3,0.1-0.4,0l-2.6-0.7c-0.1,0-0.2-0.1-0.2-0.1
		s0-0.2,0.1-0.4H86l-0.6,2.2l0.5,0.1c0-0.1,0.1-0.2,0.1-0.3c0-0.1,0-0.1,0.1-0.1c0,0,0.1,0,0.2,0l1.2,0.3l-0.6,2l-1.2-0.3
		c-0.1,0-0.1-0.1-0.1-0.1s0-0.2,0.1-0.4l-0.5-0.1l-0.7,2.3l0.5,0.1c0-0.2,0.1-0.3,0.1-0.3c0-0.1,0.1-0.1,0.1-0.1s0.1,0,0.2,0
		l2.6,0.7c0.1,0,0.3,0.1,0.3,0.1s0,0.2-0.1,0.4l0.6,0.2l0.6-2.2l-0.6-0.2c0,0.1-0.1,0.2-0.1,0.3c0,0.1,0,0.1-0.1,0.1
		c0,0-0.2,0-0.3-0.1l-0.9-0.2l0.5-2l0.9,0.2c0.1,0,0.3,0.1,0.3,0.1s0,0.2-0.1,0.4l0.6,0.2l0.6-2.2l-0.6-0.2
		C89.7,79.5,89.7,79.6,89.7,79.6L89.7,79.6z"/>
	<g>
		<path class="st0" d="M17.6,147.4v14.3c0,4.3,1.6,6.4,4.5,6.4s4.5-2.1,4.5-6.4v-14.3h5.6v13.9c0,7.7-3.9,11.3-10.3,11.3
			c-6.3,0-10-3.5-10-11.4v-13.9h5.7C17.6,147.3,17.6,147.4,17.6,147.4z"/>
		<path class="st0" d="M37.1,172.1v-24.8h6.5l5.2,9c1.5,2.6,2.9,5.7,4.1,8.5H53c-0.4-3.3-0.5-6.6-0.5-10.3v-7.3h5.2v24.8h-5.8
			l-5.3-9.6c-1.5-2.6-3.1-5.9-4.3-8.7h-0.1c0.1,3.3,0.2,6.7,0.2,10.8v7.5L37.1,172.1L37.1,172.1z"/>
		<path class="st0" d="M68.3,165.8l-1.8,6.4h-5.8l7.6-24.8h7.4l7.7,24.8h-6l-1.9-6.4H68.3z M74.6,161.6l-1.6-5.3
			c-0.4-1.5-0.8-3.4-1.3-4.7h-0.1c-0.4,1.5-0.7,3.4-1.2,4.7l-1.5,5.3H74.6z"/>
		<path class="st0" d="M107.7,162.6c-0.1-2.9-0.2-6.6-0.2-10.2h-0.1c-0.7,3.2-1.8,6.7-2.7,9.6l-3.1,9.7h-4.4l-2.6-9.6
			c-0.8-2.9-1.7-6.4-2.2-9.7h-0.1c-0.1,3.4-0.2,7.2-0.4,10.3l-0.4,9.5h-5.2l1.6-24.8h7.5l2.4,8.3c0.7,2.8,1.6,6,2.1,8.8h0.1
			c0.7-2.8,1.6-6.1,2.3-8.9l2.6-8.2h7.4l1.4,24.8h-5.5L107.7,162.6z"/>
	</g>
</g>
</svg>
